<?xml version="1.0" encoding="utf-8"?>
<!-- Generator: Adobe Illustrator 28.0.0, SVG Export Plug-In . SVG Version: 6.00 Build 0)  -->
<svg version="1.1" id="圖層_1" xmlns="http://www.w3.org/2000/svg" xmlns:xlink="http://www.w3.org/1999/xlink" x="0px" y="0px"
	 viewBox="0 0 3401.57 1268.1" style="enable-background:new 0 0 3401.57 1268.1;" xml:space="preserve">
<g>
	<path d="M685.95,755.03c-3.76-3.18-8.13-6.78-13.12-10.82c-5.33-3.83-9.02-3.56-11.21,0.76l-11.13,18.96h-98.92v-26.19h103.98
		c6.49,0,7.45-2.39,2.87-7.23c-2.87-3.29-6.22-6.74-10.11-10.41c-3.82-3.7-7.38-6.92-10.72-9.69c-2.19-2.02-4.17-2.97-5.94-2.84
		c-1.85,0.14-3.56,1.85-5.26,5.13l-6.83,14.38h-67.98v-15.54c6.29-2.26,9.5-4.21,9.7-5.85c0.27-1.68-1.3-3.12-4.65-4.35
		c-3.82-1.3-8.74-2.53-14.75-3.83c-5.95-1.23-11.76-2.53-17.29-3.76c6.01-0.28,11.76-0.75,17.29-1.54
		c5.53-0.75,11.54-1.51,17.96-2.29c6.49-0.75,13.73-1.64,21.8-2.63c8.06-0.99,17.42-2.16,28.21-3.39c1.43,1.23,2.94,3.01,4.51,5.27
		c1.57,2.29,2.8,4.04,3.76,5.34c3.41,4.32,6.7,6.78,10.11,7.4c3.35,0.62,5.74,0.54,7.17-0.21c3.14-1.51,5.61-3.66,7.38-6.44
		c1.78-2.8,2.46-6.43,1.98-10.99c-0.48-3.8-1.85-7.43-3.96-10.85c-2.19-3.42-6.15-6.57-11.89-9.45c-5.74-2.95-13.59-5.69-23.5-8.36
		c-9.98-2.67-23.03-5.27-39.08-7.8l-4.64,7.22c4.3,1.78,7.92,3.42,10.93,4.93c3,1.54,5.81,3.05,8.47,4.55
		c2.66,1.51,5.33,3.19,8.06,4.93c2.8,1.78,5.95,3.8,9.56,6.09l-125.5,3.77c10.04-5.07,18.24-9.11,24.46-12.12
		c6.22-3.05,11.27-5.38,15.23-7.05c3.96-1.64,7.25-2.74,9.77-3.39c2.46-0.65,4.79-1.2,6.97-1.71c4.78-0.76,7.24-2.57,7.24-5.52
		c0-2.88-3.89-5.34-11.55-7.39h105.42c6.42,0,7.51-2.87,3.21-8.69c-1.91-2.3-4.23-4.66-6.83-7.05c-2.67-2.4-6.63-5.34-11.89-8.9
		c-2.6-2.05-4.51-2.88-5.53-2.67c-1.09,0.28-2.39,1.51-3.83,3.8l-8.26,12.53H450.52c-3.62,0-6.63-0.14-9.16-0.37
		c-2.53-0.28-5.47-0.76-8.81-1.51l5.73,15.55c1.44-0.75,3.62-1.41,6.49-1.92c2.87-0.48,5.74-0.75,8.61-0.75h41.74
		c-1.44,1.51-3.89,3.94-7.38,7.22c-3.48,3.29-7.24,6.74-11.34,10.44c-4.1,3.66-8.13,7.26-12.23,10.82c-4.1,3.52-7.52,6.3-10.46,8.32
		c-3.82,0-7.86-0.03-12.02-0.17c-4.17-0.14-8.06-0.45-11.68-0.96c1.91,4.79,4.1,9.66,6.49,14.59c2.39,4.96,4.65,9.07,6.84,12.36
		c2.87,4.07,6.21,4.83,10.04,2.3c1.43-1.03,3.41-1.85,5.94-2.47c2.53-0.65,6.15-1.4,10.79-2.3c4.72-0.89,10.87-1.95,18.52-3.25
		c7.65-1.24,17.49-2.88,29.51-4.93c0.48,3.29,0.82,6.71,1.03,10.27c0.27,3.56,0.41,7.6,0.41,12.12v10.61h-98.17
		c-3.62,0-6.7-0.1-9.23-0.34c-2.46-0.27-5.46-0.75-8.81-1.51l6.83,14.79c1.44-0.75,3.62-1.33,6.49-1.71
		c2.87-0.41,5.74-0.58,8.61-0.58h94.28v26.19H393.34c-3.62,0-6.63-0.14-9.15-0.38c-2.53-0.24-5.47-0.75-8.82-1.54l5.74,15.2
		c1.43-0.75,3.62-1.4,6.49-1.92c2.87-0.48,5.74-0.76,8.61-0.76h297.8c4.78,0,7.31-0.61,7.58-1.88c0.21-1.27-1.23-3.56-4.37-6.85
		C693.4,761.77,689.64,758.18,685.95,755.03z"/>
	<path d="M689.91,599.05c-5.94-5.17-11.14-9.65-15.65-13.49c-1.98-1.5-3.55-2.39-4.85-2.63c-1.37-0.24-3.01,0.65-4.92,2.63
		l-6.83,13.69h-235.9c-0.27-3.28-0.34-6.37-0.34-9.31c0-2.91-0.27-6.09-0.75-9.65l-6.49,0.38c-1.91,7.08-3.69,12.9-5.4,17.42
		c-1.64,4.59-3.69,8.43-6.08,11.57c-2.39,3.18-5.4,5.96-9.02,8.35c-3.55,2.4-8.26,4.89-14,7.39c-4.1,2.05-6.49,5.27-7.17,9.69
		c-0.75,4.42-0.41,7.77,1.02,10.06c0.95,1.75,2.52,3.36,4.71,4.76c2.12,1.37,4.51,2.33,7.04,2.81c2.46,0.55,5.19,0.65,8.06,0.41
		c2.87-0.28,5.6-1.27,8.27-3.05c3.35-2.29,6.15-4.48,8.47-6.64c2.25-2.16,4.1-4.62,5.53-7.39c1.5-2.77,2.66-6.13,3.62-10.07
		c0.96-3.94,1.78-8.8,2.53-14.62H659.1c-1.43,2.8-2.66,5.48-3.76,8.01c-1.09,2.5-2.25,5.1-3.62,7.74c-1.3,2.66-2.87,5.71-4.65,9.14
		c-1.78,3.39-4.17,7.5-7.04,12.33l6.15,4.14c9.36-7.05,17.01-12.73,23.02-17.05c6.01-4.31,10.93-7.53,14.76-9.69
		c3.82-2.16,6.9-3.52,9.15-4.18c2.25-0.62,4.37-0.79,6.29-0.58c3.14,0.54,5.05-0.17,5.73-2.06c0.75-1.92,0.14-4.11-1.78-6.64
		C700.22,608.74,695.72,604.25,689.91,599.05z"/>
	<path d="M642.77,549.75c1.3-1.16,2.12-2.22,2.32-3.25c0.28-0.99,0.07-1.95-0.54-2.84c-0.62-0.89-1.36-1.71-2.32-2.47
		c-2.39-1.78-5.67-4.04-9.91-6.85c-4.16-2.74-8.34-5.17-12.37-7.19c-2.66-1.27-4.51-1.85-5.6-1.71c-1.09,0.14-2.12,0.96-3.08,2.46
		l-5.73,9.52H464.53c-4.1-2.05-8.81-4.11-14.35-6.3c-5.53-2.12-10.93-3.97-16.19-5.48c0.48,3.52,0.75,7.33,0.89,11.37
		c0.14,4.04,0.2,9.1,0.2,15.2v17.42v15c0,3.42-0.27,6.54-0.76,9.27c-0.2,2.81,0.82,4.07,3.28,3.84c3.55-0.54,7.45-1.4,11.68-2.67
		c4.17-1.27,7.45-2.53,9.91-3.8c1.84-0.75,2.8-3.9,2.8-9.48h146.81v7.6c0,1.99,0.27,3.29,0.89,3.76c0.54,0.55,1.57,0.65,3.01,0.41
		c5.05-0.75,9.22-1.64,12.64-2.67c3.35-0.99,6.69-2.26,10.04-3.8c1.92-0.75,2.67-2.5,2.19-5.31c-0.48-3.56-0.82-6.5-0.95-8.9
		c-0.07-2.4-0.14-5-0.14-7.8v-12.12C639.36,551.94,641.47,550.85,642.77,549.75z M608.81,571.19H462v-22.77h146.81V571.19z"/>
	<path d="M387.6,488.47c2.87-0.55,5.74-0.75,8.61-0.75h120.85v23.14h-81.64c-3.62,0-6.69-0.14-9.15-0.42
		c-2.53-0.24-5.47-0.75-8.81-1.5l6.83,14.79c1.44-0.75,3.55-1.37,6.42-1.92c2.94-0.48,5.81-0.75,8.68-0.75h211.85
		c2.87,0,4.51-0.82,4.99-2.64c0.48-1.74-0.21-3.52-2.12-5.3c-3.35-3.01-7.17-6.27-11.34-9.69c-4.24-3.39-7.99-6.13-11.34-8.15
		c-2.66-1.74-4.44-2.6-5.4-2.46c-0.95,0.14-2.25,1.2-3.96,3.25l-10.79,14.79h-61.83v-23.14h135.54c4.1,0,6.49-1.1,7.24-3.22
		c0.68-2.19-0.27-4.65-2.87-7.43c-3.62-4.28-7.38-8.39-11.34-12.36c-3.96-3.9-8.33-7.88-13.19-11.92c-3.35-2.81-5.6-4.17-6.76-4.17
		c-1.23,0-2.53,1.37-3.96,4.17l-14.07,23.9h-90.59v-18.22c7.45-2.02,11.34-4.17,11.82-6.43c0.54-2.29-1.78-4.32-6.77-6.09
		c-2.19-0.76-4.85-1.44-7.99-2.06c-3.07-0.62-6.35-1.37-9.84-2.12c-3.48-0.75-7.03-1.37-10.59-1.88c-3.62-0.51-6.9-0.86-9.77-1.13
		c0.27,2.53,0.48,5,0.54,7.39c0.14,2.39,0.21,5.07,0.21,7.94v9.87v12.73H393.34c-3.62,0-6.63-0.14-9.15-0.38
		c-2.53-0.24-5.47-0.75-8.82-1.54l5.74,15.58C382.55,489.6,384.73,488.96,387.6,488.47z"/>
	<path d="M1088.93,629.04c10.32,0,20.22-0.1,29.72-0.38c9.43-0.27,18.03-0.62,25.69-1.17c8.13-0.48,12.91-1.84,14.21-4.17
		c1.3-2.26,1.03-4.79-0.89-7.53c-1.91-2.81-4.37-5.82-7.38-9.14c-3-3.25-7.24-7.22-12.77-11.74c-2.67-2.06-4.65-2.98-6.15-2.88
		c-1.44,0.14-2.94,1.1-4.65,2.88c-3.14,3.29-8.88,5.55-17.22,6.85c-8.4,1.23-19.13,2.13-32.04,2.61c-8.4,0.27-14.69,0.48-18.85,0.61
		c-4.24,0.1-7.58,0.1-10.11,0c-2.53-0.14-4.78-0.28-6.83-0.41c-2.05-0.14-5.19-0.31-9.56-0.54c-4.78-0.28-7.79-1.55-9.15-3.84
		c-1.3-2.26-1.98-5.14-1.98-8.69v-12.53l82.05-6.84c4.78-0.48,7.18-1.75,7.18-3.77c0-2.02-2.05-5.07-6.15-9.11
		c-2.11-1.78-5.26-4.38-9.29-7.81c-4.1-3.39-7.85-6.37-11.2-8.9c-4.31-3.29-7.66-2.26-10.05,3.01l-8.61,17.11l-43.93,3.43v-16.36
		c6.28-4.04,9.15-7.12,8.68-9.28c-0.48-2.16-2.8-3.87-6.83-5.1c-4.37-1.3-8.89-2.33-13.73-3.25c-4.78-0.86-10.59-1.95-17.56-3.22
		c0.48,4.07,0.82,9.01,1.02,14.83c0.27,5.82,0.41,11.6,0.41,17.43v7.22l-41.4,3.01c-2.87,0.51-5.94,0.75-9.15,0.75
		c-3.21,0-6.15-0.1-8.81-0.34l7.17,15.95c1.23-0.79,3.62-1.57,7.24-2.33c3.55-0.75,6.42-1.23,8.61-1.51l36.35-2.67v10.65
		c0,11.64,2.59,20.61,7.86,26.94c5.33,6.3,14.21,9.59,26.64,9.86c9.83,0.27,19.95,0.38,30.4,0.38H1088.93z"/>
	<path d="M919.71,689.74c2.53-10.89,4.51-22.26,5.94-34.14c2.39-19,3.48-39.47,3.28-61.49c-0.27-22.01-0.41-45.4-0.41-70.18h204.34
		c-1.23,2.78-2.46,5.31-3.62,7.57c-1.23,2.33-2.46,4.59-3.76,6.85c-1.37,2.26-2.8,4.72-4.37,7.19c-1.51,2.53-3.42,5.48-5.53,8.76
		l6.83,5.31c7.65-6.06,14-10.92,19.06-14.62c5.06-3.66,9.36-6.57,12.91-8.7c3.62-2.15,6.83-3.63,9.57-4.38
		c2.73-0.75,5.67-1.17,8.82-1.17c4.3-0.24,7.17-1.57,8.61-3.97c1.43-2.4,0.27-5.48-3.55-9.31c-2.19-1.98-5.74-5.1-10.66-9.24
		c-4.92-4.21-9.63-7.81-14.21-10.86c-3.35-2.26-5.88-3.08-7.52-2.43c-1.71,0.61-3.62,1.44-5.74,2.43l-7.25,14.82h-105.75v-29.99
		h112.25c4.57,0,7.1-0.75,7.58-2.26c0.48-1.54-1.23-4.32-5.06-8.36c-4.1-4.31-7.92-7.6-11.54-9.86c-3.55-2.29-7.38-6.47-11.48-12.53
		c-3.62-3.29-6.49-5.07-8.61-5.34c-2.19-0.24-4.24,1.51-6.15,5.34l-11.48,21.63h-65.51v-16.7c7.92-4.59,12.23-7.91,12.98-10.07
		c0.75-2.12-1.91-4.38-7.93-6.64c-3.82-1.5-8.81-3.08-14.89-4.72c-6.14-1.64-13.73-3.49-22.89-5.52c0.28,4.04,0.41,8.39,0.55,13.08
		c0.14,4.69,0.21,11.47,0.21,20.3v51.63h-60.05c-7.18-4.58-13.59-8.49-19.27-11.78c-5.6-3.28-11.89-6.19-18.85-8.73
		c0.2,7.6,0.48,16.95,0.68,28.07c0.27,11.13,0.41,22.39,0.55,33.79c0.14,11.37,0.14,23.21,0,35.47
		c-0.14,12.26-0.27,27.11-0.55,44.57c-0.48,18.21-1.43,34.1-2.87,47.62c-1.43,13.52-3.83,25.99-7.17,37.39
		c-3.35,11.4-7.93,22.19-13.66,32.42c-5.74,10.27-12.98,21.19-21.59,32.83l5.06,4.93c12.7-11.88,23.16-23.31,31.43-34.34
		c8.26-11.02,14.96-21.81,20.02-32.46C913.42,711.38,917.25,700.63,919.71,689.74z"/>
	<path d="M1182.46,726.92c-2.12-0.99-4.03-2.39-5.6-4.17c-1.57-1.75-2.87-4.52-3.96-8.36c-1.03-3.76-1.99-9.03-2.87-15.74
		c-0.82-6.68-1.71-15.71-2.66-27.11h-6.83c-1.71,15.95-3.14,28.55-4.3,37.76c-1.23,9.25-2.8,16.19-4.72,20.88
		c-1.91,4.66-4.44,7.77-7.51,9.28c-3.14,1.5-7.59,2.39-13.33,2.67c-4.3,0.48-8.67,0.69-13.11,0.55c-4.44-0.14-10.52-0.42-18.17-0.96
		c-5.54-0.48-9.09-1.51-10.59-3.01c-1.57-1.51-2.39-5.21-2.39-11.03V678c8.88-5.58,13.46-9.62,13.66-12.15
		c0.28-2.53-3.82-5.41-12.23-8.73c-13.39-5.03-23.84-7.98-31.29-8.73c0.48,5.58,0.82,11.5,0.95,17.84
		c0.07,6.33,0.14,13.66,0.14,22.01V730c0,7.33,0.34,13.32,1.09,18.01c0.75,4.65,2.25,8.52,4.71,11.57
		c2.39,3.01,5.74,5.34,10.18,6.98c4.51,1.65,10.52,3.01,18.17,4.01c3.62,0.51,7.58,0.79,11.89,0.79c4.3,0,8.67-0.14,12.98-0.41
		c4.31-0.28,8.47-0.55,12.57-0.96c4.1-0.34,7.79-0.69,11.14-0.93c7.18-0.52,13.25-1.34,18.17-2.5c4.92-1.09,9.02-2.6,12.37-4.34
		c3.42-1.75,6.29-3.97,8.68-6.61c2.39-2.67,4.58-5.89,6.49-9.72c3.08-5.82,4.37-9.86,3.96-12.12
		C1189.49,731.51,1187.03,729.22,1182.46,726.92z"/>
	<path d="M1011.59,659.41c-4.03-1.78-9.29-3.76-15.64-5.89c-6.36-2.12-12.02-3.73-17.08-4.73c1.23,14.65,1.71,26.91,1.43,36.77
		c-0.2,9.86-0.95,18.86-2.11,26.98c-1.43,8.08-3.76,15.13-6.83,21.22c-3.14,6.09-7.72,11.64-13.87,16.7
		c-6.08,5.07-13.8,10-23.02,14.79c-9.22,4.79-20.7,10-34.37,15.54v7.22c19.2-3.28,35.53-7.46,48.92-12.53
		c13.46-5.04,24.46-11.34,33.13-18.79c8.61-7.47,15.03-16.3,19.2-26.54c4.24-10.24,6.69-22.36,7.38-36.25
		c0.27-3.29,0.41-6.13,0.54-8.52c0.14-2.43,0.27-4.9,0.55-7.4c8.4-5.31,12.57-9,12.57-10.99
		C1022.39,664.95,1018.84,662.42,1011.59,659.41z"/>
	<path d="M2330.41,549.96c-2.05,0-4.17,1.23-6.29,3.76l-10.8,13.66h-11.89V552.6l3.28,2.67c17.49-23.05,29.04-37.52,34.7-43.45
		c5.6-5.96,10.32-9.04,14.21-9.31c3.82-0.27,5.74-1.23,5.74-3.01c0-3.83-10.32-11.5-30.95-23.18
		c-3.83,16.46-12.84,41.25-26.99,74.39v-92.57c7.66-4.59,11.55-7.74,11.55-9.52c0-1.51-3-3.43-9.02-5.68
		c-6.01-2.26-16.4-5.31-31.29-9.11c0.75,12.12,1.09,26.57,1.09,43.27v90.28h-46.39c-6.97,0-12.98-0.62-17.96-1.88l7.51,16.29
		c4.1-1.23,9.22-1.84,15.44-1.84h29.51c-14.35,50.56-34.16,96.71-59.3,138.45l4.3,4.18c15.58-15.68,28.08-30.75,37.57-45.16
		c9.43-14.41,19.2-32.35,29.31-53.85v101.68c0,11.13-0.14,21.09-0.34,29.99l-0.75,20.47c0,2.53,1.02,3.76,3.07,3.76
		c2.05,0,6.08-1.16,12.23-3.56c6.08-2.43,9.91-4.38,11.34-5.89c1.43-1.54,2.11-4.59,2.11-9.1V619.39
		c8.41,7.8,14.9,21.87,19.47,42.11c0.95,4.79,2.32,7.94,4.1,9.48c1.84,1.51,4.65,2.3,8.61,2.3c3.96,0,7.45-2.12,10.46-6.3
		c3-4.18,4.51-9.79,4.51-16.85c0-7.12-2.94-13.8-8.81-20.13c-5.88-6.3-18.65-13.42-38.33-21.23v-28.82h44.62
		c4.78,0,7.18-1.1,7.18-3.29c0-2.12-3.28-7.12-9.84-14.96C2336.76,553.86,2332.46,549.96,2330.41,549.96z"/>
	<path d="M2503.39,595.67c-9.7-5.72-15.72-8.52-17.97-8.52c-2.26,0-4.24,1.02-5.94,3.01l-7.93,13.69h-75.15
		c-9.09-5.34-21.11-9.89-35.94-13.69c0.69,12.16,1.03,26.57,1.03,43.28v94.08c0,11.16-0.07,21.16-0.34,29.99l-0.69,21.23
		c0,2.29,0.75,3.42,2.32,3.42c1.57,0,4.79-0.75,9.7-2.26c4.92-1.51,8.95-3.21,12.23-5.13c3.21-1.92,5.13-3.36,5.74-4.35
		c0.61-1.03,0.89-3.04,0.89-6.09V698.3h84.51v32.26c0,4.55-0.89,7.46-2.67,8.73c-1.78,1.23-5.19,1.92-10.25,1.92
		c-5.05,0-18.24-2.54-39.55-7.6l-1.44,8.35c12.44,4.04,22.07,8.46,28.77,13.28c6.69,4.79,12.09,11.98,16.19,21.6
		c1.91,4.56,3.96,6.81,6.08,6.81c2.19,0,7.52-2.46,16.06-7.36c8.47-4.97,13.66-9.69,15.65-14.24c1.91-4.56,2.87-12.64,2.87-24.27
		V618.64c6.9-3.08,10.38-6.23,10.38-9.52C2517.94,605.83,2513.09,601.35,2503.39,595.67z M2475.86,685.81h-84.51v-31.16h84.51
		V685.81z M2475.86,642.53h-84.51v-27.32h84.51V642.53z"/>
	<path d="M2527.64,554.31c-9.77-9.21-16.06-13.87-18.65-13.87c-2.66,0-5.26,1.78-7.92,5.34l-12.57,17.42h-43.93v-34.89h68.04
		c5.26,0,7.86-1.09,7.86-3.22c0-2.15-4.72-7.29-14.21-15.4c-9.43-8.08-15.3-12.12-17.63-12.12c-2.25,0-4.44,1.51-6.63,4.55
		l-10.8,15.17h-26.64v-31.5h83.07c5.06,0,7.58-0.89,7.58-2.64c0-2.53-4.99-8.18-14.9-16.87c-9.97-8.77-16.26-13.11-18.92-13.11
		c-2.6,0-5.06,1.54-7.18,4.55l-12.23,16.71h-37.44v-20.48c6.49-4.59,9.77-7.6,9.77-9.11c0-1.54-0.89-2.74-2.53-3.63
		c-1.71-0.89-5.74-2.19-12.23-3.97c-6.49-1.78-15.09-3.42-25.89-4.93c0.48,9.86,0.68,21.12,0.68,33.76v8.36h-41.68
		c-6.96,0-12.98-0.62-18.03-1.92l8.68,15.95c3.55-1.78,8.61-2.67,15.09-2.67h35.94v31.5h-39.55c-6.97,0-12.92-0.62-17.97-1.92
		l8.61,15.58c3.62-1.74,8.68-2.63,15.1-2.63h33.82v34.89h-43.52c-6.97,0-12.91-0.62-17.97-1.88l6.49,15.92
		c3.55-1.75,8.61-2.63,15.09-2.63h159.32c5.74,0,8.61-0.89,8.61-2.67C2542.4,569.41,2537.48,563.52,2527.64,554.31z"/>
	<path d="M2224.51,477.11l-4.71,5.69c9.84,14.92,16.54,35.12,20.15,60.7c0.76,5.07,1.57,8.39,2.53,10.06
		c0.96,1.65,3.21,2.47,6.83,2.47c3.56,0,7.18-2.77,10.79-8.35c3.55-5.58,5.4-11.64,5.4-18.22c0-6.57-2.73-13.59-8.26-21.05
		C2251.71,500.94,2240.77,490.49,2224.51,477.11z"/>
	<path d="M3000.83,508.56c0.41-1.88-1.09-3.83-4.44-5.89c-2.66-1.23-4.99-2.57-6.9-3.97c-1.91-1.37-4.03-2.74-6.42-3.97
		c-2.19-1.27-3.76-1.92-4.72-1.92c-0.96,0-1.78,0.55-2.46,1.51l-6.15,9.1h-24.8c-4.1-2.26-7.58-3.97-10.45-5.07
		c-2.87-1.16-6.22-2.39-10.04-3.62c0.47,3.56,0.75,6.84,0.88,9.86c0.14,3.02,0.14,6.43,0.14,10.24v22.01c0,4.79,0,8.69-0.14,11.57
		c-0.13,2.91-0.41,6.51-0.88,10.82c-0.28,2.03,0.54,3.02,2.46,3.02c3.41,0,6.08-0.1,8.13-0.34c2.05-0.28,4.37-0.89,7.04-1.92
		c1.64-0.51,2.46-1.64,2.46-3.42v-4.52h28.08v8.7c0,2.53,1.1,3.56,3.28,3.05c2.87-0.51,5.39-1.2,7.72-2.09
		c2.25-0.89,4.84-2.23,7.72-3.97c0.95-0.52,1.43-1.78,1.43-3.8c0-4.07-0.07-7.63-0.21-10.82c-0.07-3.18-0.14-6.88-0.14-11.2v-15.95
		C2997.68,512.94,3000.49,510.48,3000.83,508.56z M2972.61,542.9h-28.08v-29.96h28.08V542.9z"/>
	<path d="M2911.47,511.78c0.27-1.23-1.09-3.01-3.96-5.28c-2.59-2.05-4.85-3.69-6.63-4.93c-1.84-1.3-3.89-2.67-6.29-4.17
		c-2.39-1.55-4.03-2.3-4.85-2.3c-0.89,0-1.64,0.65-2.39,1.89l-4.64,8.35h-26.24c-4.1-2.53-7.58-4.31-10.45-5.3
		c-2.87-0.99-6.22-2.16-10.04-3.39c0.41,3.49,0.75,6.78,0.89,9.86c0.07,3.02,0.14,6.44,0.14,10.21v31.15
		c0,5.04-0.07,9.11-0.14,12.12c-0.14,3.04-0.48,6.71-0.89,11.02c-0.27,2.26,0.54,3.28,2.52,3.01c3.83-0.75,6.63-1.44,8.41-2.09
		c1.77-0.61,4.03-1.81,6.62-3.6c1.71-0.75,2.53-1.92,2.53-3.42v-12.12h28.42v10.24c0,2.26,0.95,3.29,2.87,3.05
		c3.35-0.55,6.01-1.1,7.93-1.72c1.92-0.65,4.44-1.99,7.59-3.97c0.95-0.55,1.43-1.78,1.43-3.83c0-4.04-0.07-7.63-0.21-10.82
		c-0.14-3.15-0.14-6.88-0.14-11.16v-16.37C2908.73,515.2,2911.19,513.08,2911.47,511.78z M2884.48,544.44h-28.42v-29.99h28.42
		V544.44z"/>
	<path d="M2844.79,485.79c2.46-0.38,4.92-0.58,7.37-0.58h161.44c7.92,0,8.88-3.39,2.87-10.2c-4.51-5.07-8.34-8.93-11.27-11.57
		c-3.01-2.67-6.69-5.75-11-9.31c-2.39-2.02-4.23-3.04-5.39-3.04c-1.23,0-2.53,1.03-3.96,3.04l-15.1,21.98h-50.01
		c4.78-3.01,8.47-6.51,10.99-10.41c2.53-3.9,3.63-7.4,3.42-10.44c-0.48-4.04-1.43-7.5-2.87-10.44c-1.43-2.88-3.96-5.34-7.58-7.39
		c-3.62-1.98-8.54-3.7-14.76-5.14c-6.21-1.37-14.14-2.47-23.7-3.21l-1.09,6.09c6.49,4.04,11.41,9.1,14.76,15.17
		c3.35,6.06,6.35,14.68,8.95,25.78h-58.62c-3.35,0-6.15-0.03-8.4-0.17c-2.32-0.1-4.85-0.55-7.79-1.34l5.81,12.91
		C2840.28,486.75,2842.26,486.18,2844.79,485.79z"/>
	<path d="M2987.03,732.63c-11.07-3.52-20.29-7.7-27.74-12.53c6.01-5.31,10.86-9.75,14.55-13.28c3.76-3.52,7.51-7.33,11.34-11.4
		c3.14-3.25,6.49-5.27,10.11-6.02c5.47-1.3,5.95-3.29,1.43-6.09c-3.35-2.02-6.55-3.8-9.56-5.31c-3-1.54-7.1-3.42-12.37-5.72
		c-4.85,10.41-9.02,18.69-12.64,24.85c-3.55,6.23-7.04,11.84-10.38,16.91c-5.53-5.07-10.25-11.09-14.21-18.04
		c-3.96-6.95-7.99-15.34-12.09-25.23h91c8.2,0,9.5-2.63,3.96-7.94c-4.1-4.04-7.79-7.53-11.14-10.47c-3.35-2.87-6.97-5.85-10.79-8.9
		c-2.66-2.26-4.65-3.36-5.94-3.22c-1.3,0.14-2.94,1.47-4.85,3.97l-13.32,17.08h-21.52v-29.96h45.98c7.72,0,9.02-2.67,3.96-7.98
		c-3.08-3.28-5.81-5.99-8.06-8.14c-2.25-2.16-4.78-4.21-7.38-6.26c-2.67-2.26-4.65-3.42-6.15-3.42c-1.43,0-3.08,1.37-4.99,4.17
		l-9.02,12.53h-14.35v-24.31h52.13c3.35,0,5.33-0.82,5.94-2.47c0.62-1.64-0.2-3.6-2.39-5.89c-3.08-3.49-5.88-6.44-8.27-8.7
		c-2.39-2.29-5.12-4.58-8.27-6.84c-2.6-2.53-4.58-3.73-5.94-3.6c-1.3,0.14-2.87,1.57-4.85,4.35l-10.04,13.28h-18.31v-9.11
		c4.78-3.29,7.17-5.61,7.17-7.02c0-1.37-1.91-2.57-5.74-3.6c-4.1-1.03-8.06-1.78-11.89-2.26c-3.82-0.55-8.2-1.03-12.98-1.54
		c0.48,4.07,0.75,7.74,0.75,10.99v12.53h-34.5v-6.44c3.83-2.29,5.74-4.04,5.74-5.34c0-1.23-1.84-2.5-5.4-3.77
		c-3.82-1.27-7.58-2.22-11.21-2.87c-3.55-0.62-7.72-1.3-12.57-2.06c0.47,3.56,0.75,6.78,0.75,9.65v10.82h-31.7
		c-3.56,0-6.56-0.14-8.95-0.38c-2.39-0.24-5.25-0.75-8.61-1.54l7.18,14.45c1.16-0.75,3.21-1.37,6.08-1.92
		c2.87-0.47,5.8-0.75,8.67-0.75h27.33v24.31h-23.37c-3.62,0-6.69-0.14-9.22-0.41c-2.53-0.21-5.33-0.76-8.4-1.51l6.83,13.7
		c1.43-0.79,3.55-1.41,6.42-1.92c2.87-0.52,5.67-0.75,8.26-0.75h19.47v29.96h-30.2c-3.62,0-6.63-0.11-9.02-0.38
		c-2.39-0.24-5.26-0.76-8.61-1.51l6.83,14.04c1.43-0.75,3.55-1.37,6.49-1.92c2.8-0.48,5.74-0.75,8.61-0.75h35.94
		c-8.88,13.9-19.27,26.77-31.29,38.51c-11.95,11.78-23.16,21.19-33.4,28.28c-0.27-3.52-0.41-7.02-0.41-10.44v-11.57V552.79
		c5.53-2.8,8.54-5,9.02-6.64c0.48-1.64-0.96-3.76-4.3-6.3c-2.67-1.75-5.26-3.42-7.72-5.1c-2.53-1.64-5.12-3.46-7.79-5.51
		c-3.55-2.26-6.08-1.98-7.51,0.76l-4.72,8.01h-11.48v-49.37h42.08c8.13,0,9.36-3.01,3.62-9.11c-2.66-2.74-5.47-5.75-8.47-8.9
		c-3.01-3.15-6.08-6.02-9.16-8.56c-2.94-2.74-4.92-4.11-6.14-3.97c-1.23,0.14-2.67,1.34-4.31,3.63l-11.89,16.67h-86.29
		c-3.35,0-6.22-0.1-8.47-0.38c-2.26-0.27-4.72-0.75-7.38-1.51l5.4,14.41c3.14-1.54,7.58-2.29,13.32-2.29h28.42V538h-8.68
		c-4.03-3.08-8.54-5.82-13.46-8.36c-4.92-2.53-10.04-4.69-15.3-6.47c0.48,5.82,0.75,10.99,0.75,15.58v16.3v184.02
		c0,7.84-0.14,14.24-0.41,19.17c-0.21,4.93-0.55,10.68-1.03,17.25c-0.27,2.29-0.21,3.66,0.13,4.18c0.41,0.52,1.3,0.52,2.74,0
		c3.35-1.27,6.29-2.63,8.81-4.18c2.53-1.51,5.47-3.39,8.82-5.68c1.16-0.99,2.05-2.02,2.66-3.04c0.61-1,0.95-2.64,0.95-4.93v-23.9
		h75.49v22.01c0,2.5,0.21,4.07,0.68,4.55c0.54,0.48,1.57,0.48,3.28,0c6.01-1.51,11.34-4.18,16.19-7.97
		c1.91-1.27,2.87-4.28,2.87-9.11c7.66-3.53,16.06-7.84,25.14-12.91c9.15-5.06,17.28-10.47,24.46-16.3v40.61
		c-1.91,1.23-3.49,2.26-4.85,3.01c-1.3,0.75-2.94,1.78-4.85,3.05c2.87,4.28,5.47,8.07,7.72,11.4c2.33,3.29,4.85,6.3,7.79,9.11
		c2.39,2.26,4.51,1.99,6.42-0.79c1.23-1.75,2.6-3.8,4.17-6.06c1.57-2.26,3.96-5.3,7.18-9.11c3.21-3.8,7.72-8.83,13.52-15.2
		c5.74-6.29,13.39-14.51,23.03-24.65l-4.37-4.55l-31.97,20.88v-48.58c4.78-4.56,9.09-9.11,12.91-13.66
		c3.9-4.55,7.31-8.87,10.46-12.9h1.78c2.18,13.14,4.92,24.61,8.27,34.37c3.35,9.72,7.78,18.35,13.11,25.95
		c5.47,7.6,12.16,14.58,20.16,20.88c8.06,6.3,17.97,12.53,29.71,18.59c3.08,1.78,5.47,1.27,7.18-1.51c1.91-3.29,3.76-6.06,5.61-8.35
		c1.77-2.29,3.96-4.17,6.42-5.69c2.53-1.54,5.53-2.77,9.02-3.8c3.48-1.03,7.72-1.78,12.77-2.26v-5.71
		C3012.17,739.72,2998.03,736.16,2987.03,732.63z M2751.8,488.64h11.82V538h-11.82V488.64z M2795.67,727.32h-75.56V683.3h75.56
		V727.32z M2795.67,673.06h-75.49V547.08h14.01c0,17.46-0.14,31.46-0.41,41.94c-0.21,10.47-0.75,19.34-1.57,26.57
		c-0.89,7.19-2.12,13.52-3.82,18.96c-1.64,5.41-4.03,11.71-7.18,18.76l4.71,3.8c5.26-5.3,9.56-10.47,12.91-15.5
		c3.35-5.11,6.01-11.51,7.93-19.21c1.91-7.7,3.21-17.42,3.96-29.2c0.68-11.78,1.09-27.11,1.09-46.12h11.82v75.9
		c0,5.06,0.34,8.97,0.95,11.77c0.55,2.77,1.91,4.86,4.1,6.23c2.19,1.4,5.33,2.23,9.57,2.47c4.17,0.27,9.97,0.14,17.42-0.38V673.06z
		 M2795.67,624.89c-5.53,0.48-8.95,0.14-10.25-1.16c-1.3-1.26-1.98-3.9-1.98-7.94v-68.71h12.23V624.89z M2895.62,597.92h34.57v24.31
		h-34.57V597.92z M2895.62,661.29v-29.96h34.57v29.96H2895.62z"/>
	<g>
		<g>
			<g>
				<path d="M1720.27,529.91c4.05,9.69-6.53,9.06-19.91,8.07c-15.39-1.14-18.39,9.19-35.12-1.46c0,0,9.61,17.62,25.61,16.08
					c12.92-1.24,23.75-8.39,28.67,0.4c3.4,6.09-20.71,21.68-51.41,3.99c0,0,9.14,18.84,33.65,18.11
					c14.12-0.42,14.95-5.78,26.81-5.24c11.75-0.48,12.67,6.48,26.69,5.24c17.16-1.52,33.82-14.7,33.82-14.7
					c-28.2,13.81-54.98-1.31-51.58-7.4c4.92-8.79,15.75-1.64,28.67-0.4c16,1.53,27.28-12.67,27.28-12.67
					c-21.08,7.24-21.41-3.09-36.79-1.95c-13.38,0.99-23.96,1.63-19.91-8.07c4.15-9.93,23.98-0.31,37.66-3.56
					c25.59-6.08,30.51-18.98,30.51-18.98c-34.13,20.63-53.03-2.39-74.35-0.78h-4.11c-21.32-1.62-41.32,19.34-74.32-0.66
					c0,0,7.59,15.76,30.48,20.41C1696.39,529.15,1716.12,519.98,1720.27,529.91"/>
				<path d="M1479.23,751.82c-5.55-3.43-17.34-4.85-35.38-4.28c-16.65-0.57-28.1,0-34.34,1.71c-6.94,1.71-10.06,6.85-9.37,15.41
					c-0.69,6.28,1.39,10.27,6.24,11.99c4.86,1.14,15.96,1.71,33.3,1.71c20.81,0,33.65-1.14,38.5-3.43c5.55-1.71,7.98-4.57,7.29-8.56
					C1486.86,759.53,1484.78,754.68,1479.23,751.82 M1466.74,768.09c-3.47,0.57-11.1,0.57-22.89,0h-28.1c-4.16,0-5.9-1.14-5.2-3.43
					c-0.69-3.43,0.69-5.71,4.16-6.85c3.47-1.71,12.49-2.29,27.06-1.71c12.49-0.57,20.46-0.28,23.93,0.86
					c3.47,1.14,5.2,3.14,5.2,5.99C1471.6,765.24,1470.21,766.95,1466.74,768.09"/>
				<path d="M1928.19,596.23c-15.69-11.2-23.59-22.03-23.33-33.66c1.24-4.06,2.44-8.43,3.53-13.03c1.03-2.04,2.28-4.12,3.76-6.24
					c21.25-30.25,48.67-67.56,44.77-137.34c-7.01-125.42-103.85-172.7-143.9-245.7c-15.4-28.07-18.9-42.26-18.9-42.26h-192.96
					c0,0-2.71,10.96-13.81,32.66c-1.21,2.04-2.28,4.09-3.21,6.12c-0.61,1.15-1.22,2.28-1.88,3.48
					c-40.05,73-138.67,118.23-145.15,245.7c-3.66,71.99,20.26,108.19,39.76,135.78c14.31,20.24,7.71,37.06-16.03,54.49
					c-32.47,23.83-138.18,95.77-123.38,285.38c12.93,165.7,132.37,226.55,132.37,226.55c-11.44-8.31,64.42,41.94,170.84,41.94
					h110.36c107.35,0,176.01-43.54,176.01-43.54s117.97-64.32,130.78-224.95C2072.95,692.02,1961.68,620.14,1928.19,596.23
					 M2012.82,766.53c-27.2-14.43-35.08-37.9-35.08-37.9l9.69-15.11c5.3,4.21,12.85,6.78,17.86,8.14
					c3.27,7.35,6.31,15.05,9.04,23.12C2014.67,756.69,2012.82,766.53,2012.82,766.53 M2016.42,900.93l6.89-0.27
					c-1.52,8.04-3.3,15.76-5.31,23.18C2018.56,910.78,2016.42,900.93,2016.42,900.93 M1780.26,1118.21
					c-0.84-4.91-2.28-10.54-4.45-10.54c-2.3,0-4.23,6.23-5.42,11.26c-2.96,0.18-5.98,0.32-9.04,0.43
					c12.81-30.54-17.21-46.95-17.21-46.95c-0.77-8.8,41.69,4.98,46.58,27.67c1.7,7.89,1.06,13.35-0.49,17.12
					C1786.98,1117.59,1783.65,1117.92,1780.26,1118.21 M1746.79,1119.67h-10.66c-0.9-5.3-2.13-12.39-6.08-11.73
					c-3.77,0.63-5.61,6.92-6.49,11.73h-13.69c14.23-35.96-27.51-46.95-27.51-46.95c6.43-11.31,55.15-9.64,66.46,16.87
					c6.53,15.29,5.11,24.73,1.29,30.05C1748.99,1119.64,1747.91,1119.67,1746.79,1119.67 M1651.71,1119.67
					c-3.43-6.32-0.62-17.39,7.89-17.39c9.19,0,9.53,9.35,9.53,9.35c10.01-14.49-2.33-28.89-19.3-22.45
					c-16.97,6.44-1.29,36.56-16.28,19.08c-16.54-19.29,17.3-54.31,17.3-54.31s-2.87,16.29,13.37,20.05
					c17.74,4.11,34.58,12.72,32.78,29.95c-0.74,7.11-4.69,12.26-10.01,15.72H1651.71z M1625.15,1019.61
					c-4.11-4.63-18.79,7.6-18.79,7.6c-3.25-2.06,0.27-26.74,19.3-29.31c19.02-2.57,26.26,12.87,37.54,9.26
					c0,0-14.17,29.44-23.73,39.59c0,0-16.37-1.03-19.97-9.77C1619.5,1036.98,1629.27,1024.24,1625.15,1019.61 M1551.79,941.38
					c-23.45,0.5-39.18,0.75-47.17,0.75c-8,0.5-11.46-2.26-10.39-8.3c-0.53-7.04-0.27-12.58,0.8-16.6c0.53-4.03,2.4-6.04,5.6-6.04
					c3.73-0.5,5.86-0.25,6.4,0.75c1.06,1.01,1.6,2.77,1.6,5.28c-0.53,7.54,3.47,11.82,11.99,12.82c8,1.01,23.19,1.76,45.57,2.26
					c5.33-1.01,7.46-2.77,6.4-5.28c-0.53-2.51-3.2-4.27-8-5.28h-34.38c-7.46-0.5-10.93-2.01-10.39-4.53c0-4.53,4.26-6.79,12.79-6.79
					c8.53,0,20.26,0.25,35.18,0.76c3.39-0.46,4.78-1.75,4.21-3.87c14.43,3.14,36.65,4.89,56.77-6.27
					c16.02,39.75,6.93,65.21,6.93,65.21c-16.22-8.55-54.11-12.11-67.65,16.22c0.34-3.09,0.79-5.98,1.33-8.68
					C1573.64,952.7,1567.78,941.89,1551.79,941.38 M1843.95,660.91c8.07-10.48,17.35-25.36,25.05-15.44
					c9.43,12.15-4.02,25.84-4.02,25.84c-15.48-19.49-21.39,30.24-45.12,37.77c-10.04,3.19-17.32-0.11-21.58-3.31
					c-0.32-5.13-1.74-10.36-4.5-15.31c-9.13-16.36-24.94-14.19-24.94-14.19s-1.81-8.41-8.11-16.52c3.28-8.24,3.95-16.58,3.61-23.51
					c1.53,2.77,3.38,5.45,5.63,7.8c11.19,11.66,40.31,20.11,63.87-10.19c31.23-40.15,48.74-29.74,46.2,1.25
					c-1,1.57-1.69,2.42-1.69,2.42c-1.7-9.16-12.03-17.02-21.33-11.66c-13.21,7.61-12.9,13.53-31.28,31.56
					c-21.04,20.64-46.36,0.84-46.36,0.84C1797.7,688.7,1820.87,690.9,1843.95,660.91 M1625.82,657.42
					c-18.37-18.03-14.9-24.35-26.67-31.56c-8.93-5.47-19.08,2.11-21.16,10.98c-3.34-32.33,14.23-43.88,46.04-2.99
					c23.57,30.3,52.68,21.86,63.87,10.19c1.33-1.38,2.51-2.88,3.58-4.44c0.01,6.88,1.13,14.79,4.68,22.49l0.01-0.01
					c-4.74,6.54-6.6,12.44-6.6,12.44c-13.82,1.38-27.6,14.29-29.58,29.48c-3.68,3.47-11.73,8.86-23.67,5.07
					c-23.73-7.53-29.64-57.26-45.12-37.77c0,0-13.44-13.69-4.02-25.84c7.7-9.92,16.98,4.95,25.05,15.44
					c23.07,29.99,41.64,27.79,59.94-2.64C1672.18,658.27,1646.85,678.07,1625.82,657.42 M1534.99,436.97
					c-24.67-15.77-29.92-38.16-29.92-38.16l10.78-13.1c7.56,7.06,21.23,10.71,21.23,10.71
					C1541.97,414.19,1534.99,436.97,1534.99,436.97 M1507.04,425.33c0,0-1.96,14.91-13.93,29c0,0-15.28-9.73-20.83-27.57l7.9-20
					l7.8,4.47l6.87-5.57L1507.04,425.33z M1514.51,432.93l10.32,9.33c1.23,10.79-3.8,23.65-3.8,23.65
					c-11.82-4.54-15.86-14.42-15.86-14.42C1510.39,444.5,1514.51,432.93,1514.51,432.93 M1531.58,351.15l6.12-4.24
					c1.85,4.84,4.48,8.98,7.38,12.46c-1.39,1.53-1.68,1.91-2.96,3.24C1539.24,358.66,1535.76,354.73,1531.58,351.15 M1545.21,339.87
					l8.69-8.8l6.73,6.05l5.54-6.81l10.1,7.64c-2.16,14.86-14.27,24.24-14.27,24.24C1548.76,353.65,1545.21,339.87,1545.21,339.87
					 M1538.8,298.59l8.28-18.48l7.76,4.19l6.99-5.11l11.91,18.31c0,0-2.23,13.79-14.5,26.77
					C1559.24,324.26,1544.06,315.14,1538.8,298.59 M1571.41,321.71c5.37-6.45,9.71-17.13,9.71-17.13l10.21,8.7
					c1.05,10-5.1,24.03-5.1,24.03C1576.95,330.35,1571.41,321.71,1571.41,321.71 M1572.23,272.92l11.05-12.06
					c7.47,6.59,21.15,10.06,21.15,10.06c4.61,16.48-2.8,37.54-2.8,37.54C1577.11,293.69,1572.23,272.92,1572.23,272.92
					 M1577.08,245.79c0,0-4.07,17.02-22.88,28.25c0,0-10.91-4.58-19.73-13.65c11.84-12.1,23.81-23.73,34.7-35.74
					c31.5,6.47,42.59,34.45,42.59,34.45S1591.49,263.1,1577.08,245.79 M1527.97,267.11l9.37,7.97c0,0-2.28,21.22-24.78,38.9
					c0,0-4.9-9.83-6.95-21.54C1512.68,283.56,1520.25,275.19,1527.97,267.11 M1532.43,307.6c0,0,5.63,10.07,11.76,15.8
					c0,0-4.43,9.26-12.78,17.32c0,0-7.84-13.17-8.03-23.22L1532.43,307.6z M1583.57,342.15l0.22,0.11
					c-0.08,0.09-0.15,0.19-0.23,0.28C1583.57,342.29,1583.57,342.15,1583.57,342.15 M1612.22,266.28l10.2-0.91
					c0,0-3.47-17.75-18.08-32.23l3.98-2.52c4.08,15.89,14.96,27.78,14.96,27.78l8.15-6.05c1.63,3.89,3.78,7.29,6.14,10.24
					c-5.42,4.69-11.61,12.24-23.14,21.3C1614.35,273.7,1612.22,266.28,1612.22,266.28 M1596.44,188.28
					c0.56-0.99,1.12-1.99,1.66-2.99c0.52-0.97,1.01-1.89,1.51-2.83c4.19-2.1,11.89-6.43,16.35-11.81l12.77,10.15
					c0,0-1.58,21.21-23.45,39.56C1605.28,220.36,1596.45,204.02,1596.44,188.28 M1638.68,245.08l8.38-9.05l6.9,5.8l5.3-6.96
					l10.32,7.28c-1.66,14.87-13.44,24.61-13.44,24.61C1642.67,258.69,1638.68,245.08,1638.68,245.08 M1664.23,226.14
					c5.14-6.6,9.12-17.38,9.12-17.38l10.46,8.34c1.38,9.92-4.3,24.1-4.3,24.1C1670.03,234.56,1664.23,226.14,1664.23,226.14
					 M1663.45,177.5l10.63-12.38c7.67,6.32,21.41,9.33,21.41,9.33c5.14,16.27-1.57,37.49-1.57,37.49
					C1669,198.03,1663.45,177.5,1663.45,177.5 M1665.77,201.93c0,0-1.77,13.81-13.59,27.14c0,0-15.44-8.58-21.23-24.91l7.66-18.68
					l7.88,3.92l6.81-5.32L1665.77,201.93z M1637.13,228.71c0,0-4.12,9.36-12.18,17.67c0,0-8.25-12.86-8.76-22.86l8.7-10.16
					C1624.89,213.35,1630.83,223.2,1637.13,228.71 M1677.02,246.1l8.61,4.13c10.08-12.76,5.81-30.66,5.81-30.66l5.94,3.06
					c3.35-4.93,5.51-10.23,6.84-15.52c0.39,18.6,6.39,30.88,6.39,30.88l5.85-2.05c0.02,9.46,2.46,18.15,4.55,23.88
					c-7,3.44-12.32,11.08-22.19,11.57c-9.25,0.46-15.37-9.17-23.21-17.22C1677.12,249.25,1677.02,246.1,1677.02,246.1
					 M1703.11,169.58l1.37-0.17c-0.33,0.57-0.65,1.13-0.95,1.69C1703.28,170.12,1703.11,169.58,1703.11,169.58 M1783.67,299.32
					c0,0,13.45-3.63,20.71-10.16l11.2,11.47c0,0-4.34,20-27.91,34.77c-0.44-0.83-0.89-1.65-1.35-2.46
					C1784.38,326.89,1780.39,311.83,1783.67,299.32 M1905.95,355.85c7.54,0.59,13.89,2.44,19.25,5c2.08,7.48,3.64,15.32,4.6,23.55
					c-1.74-1.76-3.4-3.84-4.9-6.33c0,0-5.42,14.09-22.39,21.47c0,0-14.83-9.07-19.71-23.53c0,0-12.64,12.7-28.56,12.28
					c0,0,2.39-6.21,7.94-13.21l0.04,0.02c1.41-1.33,2.61-2.76,3.66-4.25C1874.04,362.41,1886.94,354.36,1905.95,355.85
					 M1930.9,406.84c-0.12,6.91-0.49,13.52-1.05,19.86c-11.11-13.24-12.21-25.98-12.21-25.98l10.62-9.02
					c0.71,0.86,1.52,1.68,2.38,2.46C1930.88,398.3,1930.98,402.51,1930.9,406.84 M1885.25,539.87c-3.8,4.54-6.22,9.81-7.34,15.38
					c-4.66-21-23.34-69.21-96.78-69.03c0,0,31.64-53.64,80.99-36.28c1.72,0.6,3.36,1.26,4.94,1.95c2.42,7.21,5.41,12.06,5.41,12.06
					l7.64-3.97c3.01,13.71,13.29,22.44,17.15,25.3c2.81,9.3,3.51,19.6,2.77,30.23c-0.11,1.59-0.27,3.21-0.46,4.86
					C1894.69,528.01,1889.77,534.46,1885.25,539.87 M1752.9,282.63c-10.68-11.09-11.19-25.28-11.19-25.28l10.1-6.89l5.14,7.34
					l6.69-5.57l8.02,9.6c-5.04,13.92-18.08,20.67-18.58,20.92C1753.02,282.71,1752.96,282.67,1752.9,282.63 M1770.42,244.85
					c6.45-5.25,12.81-14.88,12.81-14.88l7.9,10.67c-1.08,10.07-9.85,22.63-9.85,22.63C1773.89,254.49,1770.42,244.85,1770.42,244.85
					 M1758.32,244.86c0,0-12.55-12.1-14.11-29.49l11.73-16.5l6.51,5.72l7.72-3.6l7.52,20.47
					C1777.69,221.47,1772.7,234.6,1758.32,244.86 M1716.04,225.15c0,0-5.32-21.72,0.62-37.88c0,0,13.57-2.36,21.4-8.35l9.65,12.99
					C1747.71,191.92,1741.13,212.36,1716.04,225.15 M1725.6,230.84l10.67-7.9c0,0,3.26,11.08,7.89,17.98c0,0-6.15,8.21-15.76,14.44
					C1728.41,255.36,1723.69,240.78,1725.6,230.84 M1734.03,286.42c10.33,1.15,25.48,11.4,38.64,26.94c0.18,2.97,0.52,5.8,0.96,8.47
					c-10.07-7.72-24.97-14.52-46.84-16.51C1726.79,305.31,1715.52,284.36,1734.03,286.42 M1852.38,395.61
					c-2.14,14.44,0.2,26.53,2.7,34.44c-17.49-15.29-28.98-28.46-36.68-42.52v0c6.49,7.42,13.42,11.24,13.42,11.24
					c7.64-4.79,12.84-9.84,16.37-14.32c-2.37,6.14-3.11,10.59-3.11,10.59L1852.38,395.61z M1791.88,453.58
					c-6-4.75-17.98-11.12-38.76-10.47c0,0-1.69-10.28-3.38-21.6c0,0,42-9.92,73.11,17C1810.65,442.07,1799.97,448.05,1791.88,453.58
					 M1842.22,435.37c-9.5-12.59-38.86-43.26-95.21-35.45c0,0,0-21.6-3.6-29.82c0,0,29.82-5.66,64.25,16.46c0,0-15.4-31.88-67.85-36
					c0,0-2.06-17.48-7.71-24.68c0,0,23.3-3.67,44.95,9.41c2.9,8.37,6.12,13.21,6.12,13.21l5.69-2.55
					c1.88,15.86,10.99,28.76,10.99,28.76l2.04-1.1c10.06,25.65,26.59,47.19,42.47,61.73
					C1843.64,435.34,1842.93,435.35,1842.22,435.37 M1875.62,453.94c0,0-4.94-12.21-3.9-20.83l8.7-7.41c0,0,3.48,9.3,7.89,14.93
					C1888.31,440.62,1883.52,448.02,1875.62,453.94 M1863.15,428.8c0,0-5.89-18.29-1.76-32.49c0,0,11.53-2.83,17.91-8.44l9.09,10.56
					C1888.38,398.43,1883.96,416.33,1863.15,428.8 M1831.04,387.13c-12.16-9.55-14.27-23.21-14.27-23.21l9.45-7.62l6.01,6.51
					l6.14-6.01l9.17,8.38C1843.92,379.3,1831.04,387.13,1831.04,387.13 M1803.1,363.36c0,0-6.39-13.49-5.56-23.2l9.91-8.65
					c0,0,4.52,10.28,9.98,16.43C1817.43,347.94,1812.14,356.42,1803.1,363.36 M1673.85,459.73c-7.17-5.79-19.81-14.48-35.63-19.05
					c11.16-8.62,38.79-25.68,75.89-18.65l1.54,20.05C1715.65,442.08,1690.65,441.22,1673.85,459.73 M1898.48,475.94
					c-9.97-8.87-11.28-21.1-11.28-21.1l8.27-6.51l4.86,5.98l5.42-5.17l7.48,7.74C1909.67,469.35,1898.48,475.94,1898.48,475.94
					 M1900.72,443.15c0,0-11.54-9.61-13.94-24.42l9.09-14.84l5.95,4.51l6.42-3.55l7.72,17.09
					C1915.97,421.95,1912.47,433.5,1900.72,443.15 M1855.41,370.71l0-0.02l0.01,0C1855.42,370.69,1855.41,370.7,1855.41,370.71
					 M1855.7,333.49l9.17,9.43c0.02,9.75-7.45,22.67-7.45,22.67c-8.44-7.66-13.02-16.54-13.02-16.54
					C1850.35,343.37,1855.7,333.49,1855.7,333.49 M1850.14,302.05l12.1-10.53c6.7,7.11,19.81,11.83,19.81,11.83
					c2.88,16.36-6.55,35.94-6.55,35.94C1852.85,322.58,1850.14,302.05,1850.14,302.05 M1832.17,350.28c0,0-14.03-10.32-17.54-26.82
					l10.02-16.99l7.22,4.82l7.4-4.23l9.88,18.86C1849.15,325.91,1845.57,339,1832.17,350.28 M1765.21,291.72
					c-1.58-1.33-3.18-2.6-4.8-3.83c4.53-3.1,7.91-6.21,10.42-9.04c-2.5,5.09-4.07,9.78-5.03,13.31
					C1765.59,292.02,1765.39,291.88,1765.21,291.72 M1777.74,267.48l0.06,0.05c-0.04,0.06-0.08,0.11-0.13,0.17
					C1777.72,267.56,1777.74,267.48,1777.74,267.48 M1781.36,196.95l13.03-9.61c1.68,2.35,3.93,4.54,6.26,6.48
					c3.45,5.5,7.26,10.85,11.36,16.09c-2.02,14.52-10.08,28.09-10.08,28.09C1781.68,218.42,1781.36,196.95,1781.36,196.95
					 M1802.07,248.8c-1.77,0.73-3.45,1.52-5.05,2.36c0.69-3.73,0.72-6.28,0.72-6.28L1802.07,248.8z M1763.97,194.35
					c0,0-16.41-11.73-20.87-28.92c0,0-15.66,13.73-34.04,11.95c0,0,11.48-24.72,37.67-32.14h30.02c0,0,3.35,9.7,13.13,28.97
					C1786.69,179.18,1778.75,189.09,1763.97,194.35 M1705.97,187.41c-0.03-0.59-0.06-1.18-0.1-1.75l0.44,0.07
					C1706.19,186.3,1706.08,186.85,1705.97,187.41 M1713.59,400.44c0,0-54.54-12.1-90.34,37.44c-10.91-0.92-22.77,0.56-35.06,6.16
					c13.84-19.8,60.9-79.35,122.31-72.91C1710.51,371.13,1715.65,388.61,1713.59,400.44 M1595.16,452.94
					c31.51-15.88,68.9,5.98,79.89,33.28c0,0-85.42-1.33-96.18,77.6c0,0,12.41-27.92,42.15-26.22c26.2,1.5,32.07,19.52,32.62,36.3
					c0,0,16.23-21.8-0.2-43c-10.04-12.96-33.37-12.68-48.97-2.23c0,0,7.68-18,33.37-26.58c18.7-6.24,37.02,0.1,50.53,0.1
					c15.15,0,23.2-6.66,39.8-6.66c16.59,0,26.63,6.66,39.63,6.66c0,0,4.1-0.1,19.98-1.57c52.56-4.84,65.8,28.31,65.8,28.31
					s-17.36-12.29-35.48-3.43c-22.53,11.02-22.37,32.39-12.34,48.97c0,0-0.39-25.45,21.21-34.32c17.94-7.37,38.82,1.44,50.26,20.66
					c-0.31,7.16,1.45,14.56,5.22,21.37c-5.49-3.51-11.96-3.44-17.6-1.42c2.59-10.31-2.29-21.11-9.55-27.09
					c-13.54-11.16-31.12-6.74-34.92,3.91c-3.79,10.65,3.94,17.41,3.94,17.41c-0.47-13.48,20.52-15.01,18.56,1.57
					c-2.88,24.25-41.21-0.92-65.79,8.63c-4.32,1.68-7.9,4.09-10.85,6.83c-2.67-4.37-7.83-9.15-14.27-8.04
					c-12.61,2.16-13.06,11.83-24.19,11.31c-11.37-0.53-15.87-14.68-27.61-11.89c-6.3,1.49-9.01,4.82-10.16,7.81
					c-2.77-2.4-6.04-4.5-9.93-6.01c-24.58-9.55-62.91,15.61-65.79-8.63c-1.97-16.58,19.03-15.05,18.56-1.57
					c0,0,7.74-6.77,3.94-17.41c-3.79-10.64-21.37-15.07-34.92-3.91c-7.2,5.93-12.05,16.61-9.6,26.85
					c-6.23-2.03-13.37-1.63-19.03,3.27c0,0-17.34-36.36-16.23-64.87C1558.1,491.09,1563.65,468.82,1595.16,452.94 M1796.29,609.25
					c-11.8-3.41-23.87,2.29-26.95,12.73c-0.23,0.77-0.38,1.54-0.5,2.32c-1.31-6.38-1.05-13.19,0.3-17.93
					c2.49-6.01,8.48-12.68,22.86-12.87c18.69-0.25,30.81,8.89,43.91,8.76c-6.19,8.87-2.99,22.72-17.52,36.59
					c-4.18,3.99-10.04,6.29-16.32,6.93c4.78-2.32,8.49-6.3,10.01-11.45C1815.16,623.89,1808.1,612.66,1796.29,609.25
					 M1775.09,716.71c-3.02-7.32-15.64-1.83-20.96,3.68c-5.32,5.5-6.58,18.73-24.67,18.73c-17.3,0-19.96-10.46-26.78-19.36
					c-6.8-8.9-19.49-10.7-20.64-4.44c-1.04,5.64,8.93,9.05,16.54,9.32c0.32,0.01,0.62,0.12,0.91,0.31
					c-0.04,0.04-15.59,13.29-27.02-3.33c-12.54-18.23,8.84-39,23.97-38.28c0,0,4.06-26.7,32.18-27.15
					c28.66-0.46,30.78,30.49,30.78,30.49s14.81-6.98,25.9,8.64c16.54,23.3-12.13,50.57-27.65,29.21c0.33-0.07,0.68-0.05,1.06,0.07
					C1766.69,727.14,1777.78,723.23,1775.09,716.71 M1681.98,638.02c-3.84,3.31-8.5,5.58-13.41,6.82c4.49-2.68,7.79-6.9,8.85-12.12
					c2.18-10.66-5.8-21.35-17.82-23.88c-12.02-2.53-23.53,4.07-25.71,14.73c-0.7,3.41-0.34,6.82,0.84,9.96
					c-9.11-12.02-7.38-23.55-12.78-31.29c12.85-0.18,24.87-9.01,43.25-8.76c26.27,0.35,24.58,22.35,24.58,22.35h0.09
					C1689.84,623.97,1687.56,633.21,1681.98,638.02 M1751.48,651.14c-5.67-3.73-13.07-6.33-22.69-6.24
					c-10.09,0.08-17.82,3.47-23.65,7.91c-1.73-3.63-4.77-12.23-1.77-23.48c4.52,4.54,12.11,9.29,24.08,9.29
					c13.29,0,20.74-5.85,24.66-10.76C1755.33,638.33,1753.26,646.68,1751.48,651.14 M1755.08,609.24L1755.08,609.24
					c-4.34,9.62-13.83,20.76-27.64,20.3c-11.41-0.38-22.99-14.06-25.69-21.24l0,0c-1.46-3.67-3.75-8.2-7.2-12.42
					c3.03-0.94,7.65-1.32,11.72,2.77c6.47,6.53,13.25,14.21,20.96,14.39c13.5,0.33,23.19-17.66,34.77-16.36
					C1758.62,601.05,1756.44,605.65,1755.08,609.24 M1604.11,693.56c11.18,0,19.5,45.75,59.27,28.06c0.33,0.6,0.67,1.19,1.04,1.78
					c15.01,23.72,33.03,10.57,33.03,10.57c3.2,2.72,6.96,13.26,25.14,16.46c-1.75,1.93-3.91,4.2-6.79,6.57c0,0-5.74,4.73-15.42,8.95
					c0.12-5.6-5.39-9.26-5.39-9.26c-2.85,11.55-11.46,14.35-14.66,15.01c-0.4,0.06-0.8,0.12-1.21,0.18
					c4.19-6.69-4.33-19.18-4.33-19.18c-4.54,17.39-18.79,17.52-25.2,16.64c-0.91-0.28-1.83-0.56-2.75-0.88
					c8.22-4.26,6.93-17.31,6.93-17.31c-17.47,13.27-28.09,4.64-28.09,4.64c7.8-3.37,10.62-12.51,10.62-12.51
					c-10.02,5.8-19.01,3.58-24.78-3.79C1598.14,718.13,1595.58,693.56,1604.11,693.56 M1696.33,782.11
					c11-3.52,23.41-7.92,32.41-7.92c11.82,0,32.94,8.07,44.08,11.03c-1.14,4.87-4.68,14.84-15.06,19.76
					c-16.09,7.63-21.62,3.95-28.04,13.75c0,0-3.2-7.97-17.64-9.66c-12.76-1.5-24.44-12.44-26.56-23.71
					C1689.28,784.51,1692.89,783.41,1696.33,782.11 M1849.16,741.3c-5.75,7.67-14.88,10.05-25.06,4.16c0,0,2.82,9.15,10.62,12.51
					c0,0-17.31,8.07-32.45-6.84c0,0-1.36,13.56,7.37,17.56c0,0-22.47,6.68-28.38-16c0,0-8.07,13.57-4.32,19.19
					c0,0-12.36-0.91-15.88-15.2c0,0-5.44,3.61-5.39,9.15c-8.86-4.52-14.32-8.84-14.32-8.84c-2.83-2.4-4.7-4.59-6.09-6.44
					c13.87-2.8,21.52-14.97,21.52-14.97c16.53,10.29,32.08,1.54,38.49-12.95c37.8,14.7,47.91-29.93,58.86-29.93
					C1862.78,692.7,1861.2,718.75,1849.16,741.3 M1907.37,479.89c10.15-9.35,11.44-18.53,11.44-18.53l4.64,3.41
					c-3.17,12.34-7.14,23.21-11.5,32.81C1911.06,491.53,1909.58,485.58,1907.37,479.89 M1921.6,457.54
					c-6.88-7.07-10.46-15.12-10.46-15.12c5.23-4.88,10.12-13.52,10.12-13.52l7.42,8.64c-0.22,1.66-0.46,3.3-0.71,4.92
					C1926.15,449.96,1921.6,457.54,1921.6,457.54 M1910.31,348.86c-0.68-3.53-1.58-11.52,1.25-21.56
					c4.18,7.74,7.85,15.86,10.82,24.46C1918.8,350.48,1914.79,349.49,1910.31,348.86 M1898.45,348.17
					c-10.97,0.21-19.77,2.99-26.77,7.13c0.73-5.18,0.35-8.99,0.35-8.99l5.43,3.74c18.06-19.68,12.72-50.38,12.72-50.38l3.36,0.05
					c3.41,4.47,6.68,9.06,9.77,13.78C1901.31,319.06,1897.79,333.6,1898.45,348.17 M1857.66,276.37c0,0-5.73,16.01-25.37,24.95
					c0,0-17.89-9.58-24.31-25.59c0,0-14.3,14.73-33.08,14.88c0,0,3.11-8.72,10.97-17.85c1.39-1.22,2.61-2.55,3.69-3.94
					c9.31-9.13,23.67-17.48,44.75-16.61c7.63,0.31,14.27,1.7,20.06,3.76c11.53,11.76,23.11,23.81,33.66,36.77
					C1882.25,292.57,1867.48,290.71,1857.66,276.37 M1833.63,243.82c-11.81-0.49-21.63,1.22-29.8,4.29
					c8.71-8.72,12.98-20.12,15.06-29.79c7.6,8.93,15.9,17.64,24.45,26.39C1840.26,244.28,1837.05,243.96,1833.63,243.82
					 M1710.56,160.49c-1.78-4.23-4.57-9.69-8.77-15.25h25.85C1720.41,149.7,1714.83,155.11,1710.56,160.49 M1702.44,162.44
					c0,0-20.09,4.65-35.03-12.12c0,0-3.51,17.09-21.9,28.89c0,0-19.19-7.3-27.82-22.73c0,0-3.5,4.84-9.61,9.77
					c7.14-13.97,10.28-21,10.28-21h71.45C1698.67,153.8,1702.44,162.44,1702.44,162.44 M1588.02,201.47
					c2.71,12.28,7.56,21.53,11,26.97c-6.11-4.8-13.74-8.88-23.24-11.31C1580.12,212.03,1584.23,206.83,1588.02,201.47
					 M1500.4,299.21c2.12,20.69,9.41,28.35,9.41,28.35l5.45-3.21c1.95,8.79,5.97,16.42,9.21,21.55
					c-10.55-6.66-24.56-10.93-43.09-9.55c-1.09,0.08-2.44,0.99-3.98,2.52C1483.54,324.29,1491.47,311.25,1500.4,299.21
					 M1483.09,345.56c45.22-3.37,61.07,38.05,61.07,38.05s-20.11,4.47-34.77-14.12c0,0-3.74,18.4-22.24,30.66
					c0,0-12.36-5.49-21.55-16.49c1.37-11.23,3.71-21.64,6.84-31.38C1476.3,348.38,1479.98,345.79,1483.09,345.56 M1464.22,406.84
					c0-3.66,0.1-7.24,0.28-10.75l5.89,5.31c0,0-0.66,8.08-5.82,18.68C1464.35,415.76,1464.22,411.36,1464.22,406.84 M1466.01,436.65
					l0.1-0.12c0,0,5.79,10.84,11.99,16.98c0,0-2.28,5.38-6.7,11.7C1469.11,456.35,1467.26,446.84,1466.01,436.65 M1487.9,461.71
					l6.8,6.48l5.39-7.39l10.19,8.17c-1.87,16.05-13.75,26.26-13.75,26.26c-13.32-9.11-17.11-23.96-17.11-23.96L1487.9,461.71z
					 M1515.38,619.98c11.18,3.49-12.73,46.59,9.26,91.63c28.24,57.86,78.67,70.8,78.67,70.8c-59.77-50.06-73.65-86.46-65.94-145.55
					c6.76-51.8-15.04-60.07-15.04-60.07c-1.81-23.83-10.33-53.85-7.84-90.06c3.25-7.79,3.17-13.27,3.17-13.27l7.21,3.99
					c10.23-13.53,7.54-32.31,7.54-32.31l5.88,3.49c12.25-18.82,9.24-43.42,7.39-53.1c0.94-1.53,1.9-3.05,2.87-4.57l6.35-0.66
					c0,0-0.49-2.48-1.8-6.38c2.56-3.88,5.16-7.72,7.81-11.5c1.92,1.08,3.12,1.6,3.12,1.6c17.31-13.8,19.31-28.13,19.54-31.25
					c0.18-0.12,0.35-0.25,0.53-0.37l7.98,4.16c6-7.11,7.37-16.05,7.45-22.42c24.77-26.94,47.94-44.62,60.22-44.04
					c21.98,1.03,34.81,26.74,31.74,27.76c-3.07,1.03-98.28-8.85-132.13,121.34c0,0,56.04-114.66,138.31-101.29
					c0,0,5.65,8.23,6.43,19.54c0,0-84.98-3.98-118.47,97.8c-4.12,2.07-8.28,4.59-12.47,7.67c-52.47,38.54-11.11,138.5-11.11,138.5
					c-2.46,14.84-7.79,71.98,25.67,106.89c0,0-7.5,34.49,24.83,65.25c18.84,17.93,39.32,24.16,57.87,23.67
					c1.37,6.64,6,21.58,21.06,32.32c19.9,14.2,34.84,15.56,37.27,35.49c0,0,0.98-14.19,18.25-23.61
					c13.31-7.26,37.71-22.13,38.86-43.96c19.25,1.93,40.49-2.74,59.22-19.34c33.34-29.55,23.41-70.44,23.41-70.44
					c16.53-17.24,23.58-39.91,26.2-60.23c3.05,12.68,6.45,31.49,7.32,54.55c-15.11,23.34-12.32,52.05-12.32,52.05l8.84-1.55
					c0.31,2.81,0.73,5.53,1.21,8.15c-0.58,3.44-1.26,7.02-2.07,10.98c-15.94,77.37-79.83,72.75-99.3,67.6
					c-19.47-5.14,23.72,36.57,75.65,15.97c0,0-10.19,34.93-25.66,44.7c-15.47,9.77-59.18,9.77-76.66-7.71
					c-17.48-17.48,3.38,41.13,65.7,40.11c0,0-10.98,32.91-28.06,32.91c-17.08,0-47.11-4.11-59.6-22.62
					c-12.49-18.51-7.48,44.22,47.08,46.79c0,0-34.51,66.46-70.5,73.65c-35.99,7.2-73.79,0.26-60.54-25.45
					c13.24-25.71,69.05-102.68,62.11-141.91c0,0-45.66,101.42-61.6,104.51c-15.94,3.09-20.92-4.63-18.43-27.77
					c2.49-23.14,0-43.7,0-43.7s25.76,14.4,50.95-6.17c25.2-20.57-7.34-1.54-34.58-7.2c-24.66-5.12-26.46-25.54-26.46-25.54
					s36.23,12.69,68.38-9.42c34.56-23.77-58.29,25.19-91.8-27.25c0,0,36.51,11.92,61.7-13.37c26.39-26.49-43.27,25.29-84.42-17.48
					c-21.17-22.01-85.77-85.3-90.4-126.72C1498.43,660.43,1510.17,618.36,1515.38,619.98 M1949.22,673.77
					c11.55-2.03,21.52-0.88,29.98,1.97c7.04,9.98,13.8,20.96,19.95,33.01c-6.26-1.41-13.44-4.76-20.14-11.96
					c0,0-1.84,20.09-19.6,35.06c0,0-20.58-7.15-31.1-24.48c0,0-4.37,8.24-12.41,15.41c-2.68,1.3-9.13,5.77-13.84,8.32
					c0.02,0.04,0.04,0.07,0.04,0.13c0,0.02,0,0.03,0,0.04c-0.33,0.12-0.66,0.23-1,0.34c0.31-0.16,0.63-0.33,0.97-0.51
					c-0.25-0.43-2.16,0.42-3.66,0.96C1898.84,728,1904.94,681.53,1949.22,673.77 M1875.37,907.49c-1.6,27.31,7.45,47.78,12.34,56.7
					c-4.99-2.44-10.68-4.46-17.16-5.9c-0.39-9.63-2.37-26.45-10.61-41.92c1.73-3.15,3.43-6.35,5.13-9.59
					c-0.06,0.53-0.08,0.82-0.08,0.82L1875.37,907.49z M1894.78,952.75c0,0-10.65-24.95-6.59-45.39c0,0,15.96-5.42,24.28-14.1
					l14.2,13.68C1926.68,906.95,1922.67,932.64,1894.78,952.75 M1897.37,965.55c0.3,1.8,0.66,3.56,1.09,5.28
					c-1.5-1.15-3.09-2.26-4.77-3.31L1897.37,965.55z M1851.98,930.45c2.32,5.64,4.59,14.17,4.42,25.81
					c-7.95-0.53-15.02,0.08-21.29,1.52C1840.77,949.05,1846.42,939.97,1851.98,930.45 M1910.21,750.09
					c-0.52-3.15-0.81-6.35-0.76-9.49c0,0,12.78-7.33,18.53-16.65l14.25,10.91c0,0,0.58,24.75-20.09,47.57c0,0-5.36-9.09-9.11-20.85
					C1913.27,759.46,1911.73,754.73,1910.21,750.09 M1921.19,798.41l5.15-4.29c3.45,10.7,9.19,19.6,13.33,25.13v15.41
					c-24.35,1.4-40.81,10.74-51.91,22.31c3.89-9.97,7.56-20.29,10.93-31.06c5.43-17.38,8.82-31.08,11.31-44.76
					C1915.68,792.33,1921.19,798.41,1921.19,798.41 M1945.18,811.29c0,0-9.86-14.37-11.44-25.95l7.93-12.41
					c0,0,7.17,11.03,14.24,16.99C1955.91,789.92,1952.64,801.09,1945.18,811.29 M1946.96,761.84l5.96-22.22l8.55,4.01l6.48-6.65
					l14.75,19.86c0,0-0.39,16.18-11.21,32.47C1971.49,789.31,1954.64,780.4,1946.96,761.84 M1599.63,871.03
					c-10.03-12.34-32.88-7.23-32.01,14.65c0,0,7.33-12.52,18.51-7.22c11.18,5.29,4.63,22.65-7.33,21.49
					c-11.95-1.16-27.38-13.88-18.12-32.78c6.73-13.75,24.28-19.93,39.88-13.67c1.99,2.64,3.93,5.27,5.83,7.89
					c4.86,6.71,9.02,13.2,12.55,19.44c-4.37,5.31-10.33,15.41-16.32,16.42C1602.62,897.25,1609.65,883.37,1599.63,871.03
					 M1549.88,894.94c0,0-21.13,0.76-24.29-16.48c-3.86-21,13.88-32.88,32.78-31.73h2.7
					C1527.91,860.89,1549.88,894.94,1549.88,894.94 M1587.11,992.47c-2.57-3.82-12.34,0-12.34,0s22.46-42.13,63.63-4.59
					c0,0-40.17-15.17-46.76,34.71c0,0-14.3-5.14-16.87-10.8C1574.77,1011.78,1589.68,996.29,1587.11,992.47 M1802.57,1098.94
					c-4.34-24.4-29.62-28.54-37.3-36.25c-3.2-3.21,8.02-15.93,29.65-45.41c-2.48,25.77,7.18,43.77,7.18,43.77l5.9-2.19
					c0.55,16.55,8.58,30.61,8.58,30.61l9.22-4.23c1.78,9.87,6.87,17.71,11.57,23.11c-11.11,2.99-23.53,5.62-37.26,7.6
					C1802.61,1110.64,1803.59,1104.67,1802.57,1098.94 M1844.49,1072.48l5.46,7.21l6.65-5.74l8.46,9.39
					c-4.8,14.32-18.34,21.41-18.34,21.41c-11.36-10.83-12.32-25.13-12.32-25.13L1844.49,1072.48z M1820.78,1077.96
					c0,0-5.26-14.45-3.61-24.43l10.64-8.17c0,0,3.66,10.99,8.6,17.77C1836.4,1063.14,1830.4,1071.5,1820.78,1077.96
					 M1850.95,1066.71c0,0-13.16-11.77-15.29-29.12l11.44-16.78l6.82,5.55l7.76-3.79l8.3,20.27
					C1869.97,1042.84,1865.29,1056.09,1850.95,1066.71 M1807.25,1048.08c0,0-6.09-21.58-0.53-37.87c0,0,13.76-2.7,21.56-8.89
					l10.23,12.75C1838.51,1014.07,1832.42,1034.66,1807.25,1048.08 M1863.28,1066.39c6.42-5.4,12.59-15.2,12.59-15.2l8.38,10.47
					c-0.79,10.09-9.35,22.86-9.35,22.86C1867.12,1075.95,1863.28,1066.39,1863.28,1066.39 M1877.92,1093.97
					c-3.34,1.51-6.96,3.05-10.84,4.58c3.58-5.61,4.35-9.72,4.35-9.72L1877.92,1093.97z M1872.96,1018.24l12.99-9.94
					c6.1,7.88,18.81,13.79,18.81,13.79c1.5,17.15-9.57,36.65-9.57,36.65C1873.94,1039.69,1872.96,1018.24,1872.96,1018.24
					 M1882.63,992.27c0,0-7.07,16.11-27.47,23.82c0,0-17.09-11.31-22.16-28.38c0,0-13.76,12.49-31.03,12.88
					c1.13-1.75,2.61-3.83,4.55-6.34c2.42-3.14,12.3-12.18,14.65-15.62c1.56-2.28,3.13-4.59,4.71-6.91
					c9.17-4.95,20.85-8.03,35.41-6.26c44.91,5.45,52.76,46.27,52.76,46.27S1893.54,1012.01,1882.63,992.27 M1907.46,957.72
					l11.39-11.49c0,0,6.09,12.62,13.04,19.98c0,0-5.84,10.99-16.28,20.28C1915.61,986.48,1907.07,969.96,1907.46,957.72
					 M1926.98,935.65l11-21.97l8.99,5.58l8.64-5.78l13.08,23.03c0,0-3.49,16.65-18.91,31.68
					C1949.78,968.19,1932.24,956.14,1926.98,935.65 M1968.37,906.5l13.91-13.99c8.5,8.49,24.58,13.58,24.58,13.58
					c4.49,20.35-5.63,45.53-5.63,45.53C1972.93,932.1,1968.37,906.5,1968.37,906.5 M1942.99,976.14l7.64,7.79l7.02-7.95l11.56,9.93
					c-3.47,17.96-18.48,28.61-18.48,28.61c-15.24-11.21-18.63-28.22-18.63-28.22L1942.99,976.14z M1964.43,965.86
					c6.79-7.51,12.61-20.25,12.61-20.25l11.63,11.24c0.64,12.24-7.54,28.93-7.54,28.93C1970.5,976.72,1964.43,965.86,1964.43,965.86
					 M1997.51,960.65l6.17,3.97c-2.32,5.28-4.76,10.34-7.26,15.2C1998.82,969.58,1997.51,960.65,1997.51,960.65 M1975.81,873.78
					c0,0-5.89,20.46-28.98,32.95c0,0-22.14-10.87-30.87-30.56c0,0-16.29,19.41-38.89,20.81c0,0,14.73-51.45,69.1-52.03
					c54.36-0.58,70.14,47.2,70.14,47.2S1991.92,895.76,1975.81,873.78 M1953.87,834.73c0.19-4-0.1-10.06-0.42-15.03
					c3.8,7.21,8.86,12.71,13.73,16.8C1963.02,835.64,1958.59,835.05,1953.87,834.73 M1959.22,808.82l7.71-11.09l7.73,6.27l4.75-8.46
					l11.41,7.74c-0.16,17.39-11.31,29.51-11.31,29.51C1964.77,824.36,1959.22,808.82,1959.22,808.82 M1983.62,785.07
					c4.63-8.02,7.61-20.83,7.61-20.83l11.68,8.96c2.46,11.44-1.92,28.29-1.92,28.29C1990.5,794.44,1983.62,785.07,1983.62,785.07
					 M1969.84,663.24c-5.75-0.68-12.02-0.68-18.83,0.17c-2.48-5.52-6.27-15.8-7.26-28.82
					C1952.25,642.75,1961.14,652.28,1969.84,663.24 M1927.09,619.8c-0.47,11.68,0.61,29.39,8.44,46.97
					c-8.21,2.64-14.97,6.4-20.53,10.84c-2.18-34.74-8.66-60.54-14.19-76.95C1906.96,604.59,1916.26,610.91,1927.09,619.8
					 M1481.29,494.31c7.97,9.19,16.98,13.47,17.44,13.69c-1.57,3.78-2.93,7.78-3.82,12.16
					C1490.19,512.77,1485.52,504.15,1481.29,494.31 M1495.72,599.77c-3.28,25.86-10.45,45.71-10.42,73.44
					c0.05,41.42,46.64,94.96,88.99,147.01c-0.17,8.37-0.82,17.24-2.81,18.04c-3.86,1.54-30.46-9.64-48.97,11.18
					c-6.55,7.37-9.33,18.22-7.95,28.31c-0.64-0.03-1.31-0.06-2.02-0.06c-26.36-0.57-43.71-0.86-52.03-0.86
					c-7.63,0-10.41-1.43-8.32-4.28c2.08-2.29,9.71-4,22.89-5.14c12.49-1.15,18.04-20.55,16.65-58.23c-2.08-5.14-4.86-7.71-8.32-7.71
					c-4.16,0-6.24,2.57-6.24,7.71c3.47,20.55,3.47,34.25,0,41.1s-10.41,10.27-20.81,10.27c-2.08,0-3.47-0.29-4.16-0.86
					c-0.69-0.57-0.69-2,0-4.28c0-4,2.77-6.56,8.32-7.7c4.86-1.14,4.16-8.28-2.08-21.41c-3.47-5.14-5.2-8.85-5.2-11.13
					c0-1.71,1.73-3.71,5.2-5.99c5.55-7.42,10.06-11.99,13.53-13.7c3.47-1.14,10.06-1.14,19.77,0c4.16-0.57,6.24,0.57,6.24,3.42
					c0,2.28,1.39,8.56,4.16,18.84c2.08,4,5.55,5.14,10.41,3.42c4.16-1.71,5.55-4.57,4.16-8.56c-2.77-5.71-4.16-11.7-4.16-17.98
					c-0.69-6.85,0.69-13.98,4.16-21.41c0-4.57-2.08-7.7-6.24-9.42c-4.16-2.28-6.94,0.29-8.32,7.7c-2.08,6.28-3.47,10.56-4.16,12.84
					c-1.39,1.71-4.16,2.57-8.33,2.57h-93.66c-5.55-0.57-8.33-2.28-8.33-5.14c0-3.42-2.08-7.99-6.24-13.7
					c-2.41-1.65-4.81-2.51-7.22-2.64c5.14-21.98,12.43-41.36,20.95-58.42c4.36,12.72,11.57,19.09,21.65,19.09
					c11.1,0,17.34,1.43,18.73,4.28c0,2.28-1.73,3.42-5.2,3.42c-4.16,0-14.22,0.57-30.18,1.71c-6.94,0-10.06,1.43-9.37,4.28
					c0,2.86,3.82,4.28,11.45,4.28c0.69-0.56,9.02-1.14,24.98-1.71c15.96-1.14,33.3-1.14,52.03,0c6.24,0,9.37-1.42,9.37-4.28
					c0.69-2.85-2.43-4.84-9.37-5.99c-14.57,0-23.59-0.28-27.06-0.86c-4.16,0-6.24-0.28-6.24-0.86c1.39-2.28,7.63-4.28,18.73-5.99
					c11.1-1.14,18.73-8.85,22.9-23.12c-0.7-2.85-3.12-4.84-7.29-5.99c-4.86-0.57-7.28,0.86-7.28,4.28c1.39,6.28,0,11.13-4.16,14.56
					c-4.16,2.86-9.02,4.28-14.57,4.28c-4.86,0-7.28-1.42-7.28-4.28c0-2.28,0.35-7.13,1.04-14.56c-0.69-3.42-3.12-5.42-7.28-5.99
					c-4.86-1.14-7.28,0.86-7.28,5.99c0,8.56,0.35,13.99,1.04,16.27c0,1.71-1.74,2.57-5.2,2.57c-6.25,0-11.1-1.14-14.57-3.43
					c-3.47-1.71-5.55-6.28-6.24-13.7c-0.69-2.28-3.12-3.71-7.28-4.28c-0.25-0.06-0.46-0.07-0.69-0.11
					C1432.83,638.93,1478.76,610.44,1495.72,599.77 M1443.85,823.75c2.77,0,6.24,4.28,10.41,12.84c0.69,2.86,0,4.57-2.08,5.14
					c-2.08,0-4.16,0.57-6.24,1.71c-6.24,0-10.06-0.57-11.45-1.71c-0.69-1.14-0.35-2.85,1.04-5.14
					C1438.3,828.03,1441.08,823.75,1443.85,823.75 M1431.36,796.35c0.69-1.14,4.16-1.43,10.41-0.85c7.63-1.14,11.79-1.14,12.49,0
					c0,0.57-1.39,2.28-4.16,5.14c-3.47,4-5.9,6-7.28,6c-1.39-0.57-3.82-2-7.29-4.28C1432.06,798.92,1430.67,796.92,1431.36,796.35
					 M1367.3,867.83c-2.57-33.73-0.68-63.59,4.28-89.97c3.07,3.91,4.63,8.36,4.63,13.35c-0.69,6.28-2.43,15.12-5.2,26.54
					c-2.08,5.14-1.04,7.71,3.12,7.71c4.16,0,7.28-2.57,9.37-7.71c2.77-9.7,4.16-15.98,4.16-18.84c0-2.85,4.86-4,14.57-3.42
					c5.55-0.57,9.02-0.29,10.41,0.85c1.39,1.14,4.16,3.14,8.33,5.99c9.71,6.28,14.22,10.84,13.53,13.7
					c-0.69,2.28-2.43,5.14-5.2,8.56c-6.25,14.84-6.59,23.12-1.04,24.83c6.24,1.71,10.06,3.71,11.45,5.99c0,2.85-0.69,4.56-2.08,5.14
					c-2.08,0.57-4.86,0.57-8.32,0c-7.63-0.58-12.84-4-15.61-10.27c-2.78-6.85-3.12-20.55-1.04-41.1c0-4-2.08-6.56-6.24-7.71
					c-4.16-1.14-6.94,0.86-8.32,5.99c-2.08,37.67,3.81,57.37,17.69,59.08c13.88,1.71,22.55,3.71,26.02,5.99
					c0.69,2.85-2.43,4.28-9.37,4.28c-7.63,0-23.24,0.28-46.83,0.86c-8.33,1.14-12.14,3.14-11.45,5.99c0.69,3.43,3.82,5.42,9.37,5.99
					c24.28-2.86,48.91-4.28,73.89-4.28c24.28,0,43.36,1.42,57.24,4.28c1.34-0.12,2.5-0.32,3.56-0.58c2.69,5,6.78,9.2,12.34,11.87
					c-15.56-0.32-26.61-0.18-33.09,0.44c-10.66,1.51-15.46,7.29-14.39,17.35c-0.53,11.06-1.07,17.85-1.6,20.37
					c-0.53,2.01-2.67,2.77-6.4,2.26c-5.33,0.5-9.06-1.01-11.19-4.53c-2.13-3.52-2.67-12.07-1.6-25.65c0-6.54-1.87-9.56-5.6-9.05
					c-3.73,1.01-6.13,4.02-7.2,9.05c0.53,25.15,5.6,37.97,15.19,38.47c9.06,0,14.12,2.26,15.19,6.79c0,2.01-0.8,3.52-2.4,4.53
					c-2.13,1.01-6.13,1.51-11.99,1.51c-13.33,0.5-18.12,11.31-14.39,32.44c2.35,15.14,1.52,33.15-2.46,54
					C1416.6,1019.44,1374.58,963.22,1367.3,867.83 M1457.51,1056.73c1.72-6.1,2.74-10.62,3.13-13.51
					c2.18-16.21,2.95-28.74,1.6-50.54c-0.53-8.55-0.53-13.04,0-16.56c0-3.52,2.89-5.79,9.59-6.07c4.38-0.18,6.93-1,8,0
					c1.07,0.5,1.6,2.01,1.6,4.53c-1.07,8.55,2.93,13.33,11.99,14.33c9.06,1.51,26.92,1.76,53.57,0.76c3.2-1.51,4-3.52,2.4-6.03
					c-1.6-2.52-4-3.52-7.2-3.02c-18.12,1-30.92,1-38.38,0c-6.93-0.51-10.13-3.52-9.59-9.06c-0.53-3.02,2.93-4.27,10.39-3.77
					c7.46,0,21.05,0.25,40.78,0.75c2.67-0.5,3.46-2.01,2.4-4.53c-1.07-3.02-4-4.52-8.8-4.52h-39.18c-4.8-0.5-6.66-2.01-5.6-4.53
					c-0.53-3.02,3.73-4.53,12.79-4.53c8.53,0,22.39,0.5,41.58,1.51c10.13,0,13.59,11.07,10.39,33.19
					c-3.2,21.62,1.33,62.64,12.13,90.4c0.93,2.39,3.86,6.68,7.06,3.89c1.94-1.69,1.81-4.77,0.8-8.3
					c-5.61-19.65-8.96-37.26-10.57-52.64c9.47,14.58,29.5,18.35,29.5,18.35c10.8,21.98,32.01,20.05,32.01,20.05
					c-18.88,21.9-17.97,46.61-7.05,62.07c-67.92-4.23-112.27-27.27-129.2-37.76c8.49-26.99,9.71-44.59,12.37-55.03
					c3.13-12.32,3.92-15.68,12.16-15.68c15.9,0,19.5,3.09,18,19.02c-1.29,13.63-3.2,18.23,1.31,54.7
					c0.96,7.77,1.59,13.39,6.66,12.66c5.06-1.5,6.52-7.96,4.91-15.76c-2.57-12.45-3.08-14.81-3.36-23.57
					c-0.43-13.41,0.02-24.33,1.03-36.25c1.02-14.17-2.96-23.75-16.21-23.59c-15.41,0.19-33.82-0.62-45.63,1.12
					c-5.07,0-9.65,1.86-10.66,5.59c0,2.98,2.03,4.85,6.08,5.59c5.07-0.74,15.31-0.37,15.31,1.12c1.01,1.49,1.65,6.06,0.72,12.49
					c-0.97,6.72-2.73,14.57-5.91,28.02c-2.02,8.56-4.19,14.2-7.04,23.05C1479.05,1072.3,1469.44,1066.59,1457.51,1056.73
					 M1909.21,1076c0,0-9.21,7.53-27.74,16.32c9.93-10.65,9.67-26.59,9.67-26.59l5.11,4.29c19.7-18.94,16.95-51.11,16.95-51.11
					l10.12,0.94c0,0-0.08-10.29-5.06-22.61l4.47-2.83c7.43,23.39,29.7,34.67,29.7,34.67c24.24-17.75,25.25-37.58,25.25-37.58
					l9.08,5.46C1952.22,1053.23,1909.21,1076,1909.21,1076 M2027.82,867.83c-0.61,7.01-1.43,13.81-2.41,20.41
					c-4.62-13.23-15.38-33.97-39.28-45.45c14.77-18.73,12.8-35.44,12.8-35.44l9.32,4.21c9.07-15.52,2.79-36.03,2.79-36.03l6.45,3.15
					c1.6-3.23,2.81-6.57,3.73-9.95C2028.13,797.65,2031.08,830.58,2027.82,867.83 M1751.65,462.1c2.71-0.77,5.44-1.39,8.49-1.4
					c2.7-0.01,5.48,0.26,7.92,1.51c3.37,1.73,5.48,4.4,2.88,8.06c-2.16,3.05-3.59,6.38-4.72,10.02c-0.15,0.49-0.3,0.99-0.58,1.42
					c-0.6,0.93-1.72,1.35-2.77,1.34c-3.46-0.02-7.06-1.63-10.39-2.53c-4.07-1.1-8.18-2.01-12.34-2.63
					c-2.58-0.38-5.36-0.54-8.14-0.58c-0.72-0.01-1.43,0.02-2.15,0.02c-2.44,0.04-4.88,0.16-7.19,0.45
					c-0.37,0.05-0.77,0.06-1.14,0.11c-4.16,0.61-8.27,1.53-12.34,2.63c-3.32,0.9-6.93,2.5-10.39,2.53
					c-1.05,0.01-2.17-0.41-2.77-1.34c-0.28-0.43-0.43-0.93-0.58-1.42c-1.12-3.63-2.55-6.96-4.72-10.02
					c-2.6-3.66-0.48-6.34,2.88-8.06c2.44-1.25,5.22-1.52,7.92-1.51c8.76,0.02,16.48,3.85,25.13,4.65c5.7,0.52,11.48,0.18,17.07-1.04
					C1746.52,463.7,1749.08,462.84,1751.65,462.1z"/>
			</g>
		</g>
	</g>
</g>
</svg>
