<?xml version="1.0" encoding="utf-8"?>
<!-- Generator: Adobe Illustrator 28.0.0, SVG Export Plug-In . SVG Version: 6.00 Build 0)  -->
<svg version="1.1" id="圖層_1" xmlns="http://www.w3.org/2000/svg" xmlns:xlink="http://www.w3.org/1999/xlink" x="0px" y="0px"
	 viewBox="0 0 548 768" style="enable-background:new 0 0 548 768;" xml:space="preserve">
<style type="text/css">
	.st0{opacity:0.1;}
</style>
<path class="st0" d="M273.88,15.98c21.93,0,43.86,0.03,65.79-0.04c2.16-0.01,3.16,0.51,3.95,2.75c8.52,24.18,22.55,44.92,39.59,63.9
	c14.09,15.68,28.23,31.36,41.31,47.87c17.09,21.58,28.02,46.15,32.42,73.55c6.3,39.18-0.93,75.16-24.53,107.46
	c-2.39,3.27-5.17,6.41-6.8,10.04c-4.83,10.75-5.97,15.86,1.55,25.32c1.79,2.26,3.88,4.38,6.16,6.14
	c7.97,6.16,16.26,11.91,24.12,18.21c37.75,30.29,61.1,69.38,69.83,116.91c7.98,43.44,6.27,86.51-8.18,128.51
	c-14.12,41.06-38.75,74.62-74.39,99.67c-17.87,12.56-38.2,19.91-59.07,25.77c-24.24,6.81-49,9.95-74.16,9.96
	c-27.75,0.01-55.5,0.21-83.25-0.16c-33.51-0.45-65.49-8.26-96.6-20.54c-42-16.57-70.73-47.05-91.29-86.07
	c-15.66-29.73-22.51-61.82-24-95.23c-1.25-28,0.9-55.62,8.46-82.68c12.34-44.18,37.52-79.38,74.52-106.31
	c4.86-3.54,9.73-7.17,14.02-11.35c10.32-10.02,11.15-20.02,2.81-31.71c-10.82-15.16-20.17-31.1-24.11-49.48
	c-10.3-48.01-2.47-92.58,26.13-133.02c11.62-16.43,25.49-30.91,39.15-45.59c10.9-11.72,21.77-23.49,30.26-37.15
	c6.75-10.86,12.52-22.25,16.65-34.39c0.67-1.98,1.65-2.39,3.57-2.39C229.81,16,251.85,15.98,273.88,15.98z M205.83,489.17
	c-0.29,0.09-0.5,0.23-0.65,0.19c-0.89-0.27-1.79-0.54-2.65-0.87c-16.07-6.27-29.22-16.44-39.98-29.83
	c-14.6-18.18-21.47-38.63-18.39-62.07c0.8-6.07,1.44-12.17,1.81-18.27c0.08-1.34-1.31-2.77-2.03-4.16
	c-0.93,1.01-2.35,1.86-2.72,3.05c-2.13,6.81-4.49,13.6-5.88,20.58c-2.04,10.22-3.04,20.6,0.32,30.81
	c3.85,11.69,10.52,21.84,17.73,31.66c13.32,18.14,28.97,34.24,44.59,50.35c9.73,10.04,21.75,14.08,35.34,12.69
	c8.31-0.85,16.46-3.15,24.69-4.78c1.45-0.29,2.92-0.48,4.38-0.72c-2.11,4.6-5.42,7.66-9.16,10.22c-11.59,7.92-24.41,8.28-37.86,5.91
	c1.75,2.43,3.52,4.71,5.63,6.61c8.67,7.78,19.31,10.69,30.53,10.38c9.91-0.28,19.78-2.05,29.67-3.14c1.32-0.15,2.66-0.15,3.99-0.22
	c0.16,0.43,0.32,0.86,0.47,1.29c-4.57,2.74-8.95,5.89-13.75,8.14c-12.94,6.07-26.47,5.97-40.6,2.54c0.43,1.61,0.63,2.82,1.08,3.92
	c2.87,7.06,8.25,11.28,15.46,13.31c8.45,2.38,16.88,1.22,25.31-0.27c2.55-0.45,5.13-0.72,7.69-1.07c0.15,0.37,0.3,0.74,0.45,1.1
	c-3.75,4.21-8.05,7.8-13.14,10.41c-9.68,4.96-19.54,4.53-29.77,0.32c0,10.86-0.01,21.33,0,31.8c0.01,3.93-0.21,7.89,0.19,11.78
	c0.34,3.36,2.06,6.25,5.68,7.03c4.47,0.96,8.78,0.56,11.86-3.41c2.8-3.6,5.65-7.2,8.08-11.05c11.42-18.13,20.53-37.48,29.68-56.81
	c0.39-0.82,0.85-1.61,1.27-2.41c0.59,1.1,0.68,1.92,0.7,2.75c0.34,10.11-2.8,19.46-6.53,28.62c-7.55,18.54-18.05,35.49-28.37,52.55
	c-3.49,5.77-7.02,11.54-10.12,17.52c-2.95,5.71-1.82,10.49,2.84,13.78c1.67,1.18,3.59,2.37,5.54,2.7
	c6.11,1.04,12.27,2.25,18.43,2.35c14.43,0.24,27.35-3.77,37.84-14.45c11.39-11.59,20.62-24.67,28.35-38.88
	c0.07-0.14-0.05-0.38-0.12-0.75c-1.17-0.17-2.4-0.36-3.62-0.52c-8.15-1.09-15.45-4.19-21.43-9.86
	c-6.41-6.08-11.06-13.22-11.64-22.36c-0.06-1.01,0.55-2.07,0.85-3.11c0.98,0.63,2.27,1.05,2.89,1.94c3.84,5.47,9.09,9.03,15.17,11.5
	c8.79,3.56,18.02,4.9,27.42,4.89c2.05,0,4.4-0.82,6.08-2.01c7.28-5.12,10.56-12.91,13.54-20.28c-7.31-1.5-14.46-2.36-21.22-4.47
	c-11.43-3.58-20.67-10.51-27.16-20.74c-1.19-1.87-1.72-4.15-2.55-6.24c0.37-0.27,0.75-0.53,1.12-0.8c1.19,0.84,2.35,1.74,3.59,2.52
	c3.58,2.23,6.98,4.95,10.84,6.51c8.5,3.43,17.49,3.87,26.63,3.57c13.93-0.45,23.25-7.15,28.66-19.72c2.25-5.23,4.38-10.52,6.6-15.87
	c-5.53,1.13-10.35,2.53-15.26,3.05c-13.59,1.43-26.24-1.48-37.52-9.38c-1.9-1.33-3.35-3.29-5.01-4.95c0.21-0.46,0.41-0.93,0.62-1.39
	c12.58,2.67,25.07,3.42,37.37-0.79c12.68-4.34,22.26-12.43,28.49-24.21c5.93-11.22,9.98-23.01,9.01-36.19
	c-2.59,0.41-4.43,0.69-6.45,1.01c-0.68-10.43,0.27-20.65,5.02-29.81c3.23-6.22,3.93-12.2,2.95-18.78
	c-1.23-8.34-2.39-16.68-3.57-25.03c-0.3,0.01-0.6,0.02-0.9,0.04c-0.18,0.76-0.4,1.51-0.54,2.28c-2.51,13.71-7.33,26.36-16.71,36.98
	c-0.67,0.76-0.93,2.24-0.8,3.31c3.39,27.48-11.15,51.41-36.93,59.5c-7,2.2-14.6,2.51-22.45,3.78c-0.9,7.69-5.61,14.3-12.15,19.56
	c-4.35,3.5-9.02,6.69-13.87,9.45c-6.86,3.91-12.48,8.67-14.83,16.73c-1.37-8.37-7.31-12.6-13.91-16.3
	c-3.44-1.93-6.82-3.97-10.15-6.08c-8.51-5.38-14.34-12.83-17.01-22.59c-0.43-1.55-1-2.2-2.69-2.23
	c-14.95-0.25-27.59-6.1-38.37-16.21c-13.23-12.4-20.32-27.34-18.76-45.83c0.08-0.94-0.66-2.04-1.21-2.94
	c-3.59-5.81-7.96-11.25-10.71-17.42c-7.48-16.74-8.43-34.53-6.65-52.53c0.3-3.07,0.11-5.84-0.92-8.8
	c-6.84-19.68-11.32-39.77-8.81-60.8c2.02-16.94,9.76-30.21,25.17-38.48c1.2-0.64,2.18-2.1,2.76-3.41c2.46-5.48,4.4-11.22,7.14-16.56
	c12.24-23.84,30.52-40.73,56.81-47.86c6.35-1.72,12.99-2.39,19.75-3.59c-0.44-1.91-0.66-4.24-1.5-6.31
	c-3.13-7.74-1.8-6.94-9.76-7.35c-16.79-0.87-31.34,5.25-44.55,14.96c-17.98,13.22-31.3,30.51-42.63,49.48
	c-1.35,2.25-2.62,4.55-3.93,6.83c4.17-17.13,10.67-33.2,21.02-47.51c13.71-18.96,31.7-31.5,54.89-35.9
	c5.76-1.09,11.68-1.4,17.67-2.09c-0.07-0.5-0.08-1.12-0.26-1.68c-4.86-15.04-21.24-21.37-34.57-13.22
	c-10.37,6.34-18.97,14.79-27.42,23.41c-2.29,2.34-3.6,4.75-3.85,8.1c-0.32,4.25-1.88,8.2-4.97,11.48c-1.99-0.98-3.8-1.87-5.82-2.86
	c-1.33,8.59-5.63,15.05-11.7,20.41c-1.16,1.02-2.87,1.42-4.32,2.11c-0.19-0.26-0.39-0.53-0.58-0.79c-1.84,3.86-6.88,6.53-4,12.04
	c-0.67,0.25-1.04,0.44-1.42,0.51c-4.36,0.77-5.01,1.87-4.63,6.41c0.39,4.65,0.76,9.34,0.58,13.99c-0.29,7.45-2.14,14.53-6.34,20.93
	c-1.35-0.66-2.59-1.26-4.09-1.99c0.37,8.36-0.55,15.94-5.52,22.62c-1.76-0.92-3.29-1.72-4.77-2.5c-0.96,3.77-2.54,7.26-2.6,10.79
	c-0.15,8.5-0.02,17.05,0.81,25.5c1.16,11.77,3.04,23.47,4.66,35.19c0.1,0.74,0.44,1.7,0.99,2.08c5.84,4.01,8.14,10.02,9.57,16.55
	c2.36,10.77,0.73,21.49-0.37,32.24c-1.84,17.97-0.4,35.49,7.98,51.9c6.46,12.66,15.57,23.27,25.76,33.01
	C196.99,481.24,201.42,485.14,205.83,489.17z M227.94,341.66c-0.38-1.21-0.58-2.1-0.93-2.94c-1.2-2.93-4.18-4.6-7.28-4.12
	c-3.06,0.47-4.94,2.65-5.22,6.06c-0.53,6.43,2.87,10.18,9.72,9.92c4.85-0.18,9.68-1.11,14.5-1.85c10.25-1.57,20.48-3.15,28.97,3.91
	c2.22-1.56,3.97-3.21,6.05-4.18c5.17-2.41,9.11,0.28,12.94,3.47c6.99,5.83,10.95,5.79,17.84,0.15c6.42-5.25,12.86-5.8,18.02,1.18
	c0.09,0.12,0.36,0.11,0.66,0.19c5.22-4.64,11.54-6.36,18.4-6.04c3.93,0.18,7.82,0.96,11.74,1.4c5.45,0.6,10.92,1.65,16.36,1.55
	c5.73-0.1,8.86-5.24,7.48-10.84c-0.73-2.97-2.53-4.81-5.59-4.98c-3.07-0.17-5.44,1.18-6.72,4.08c-0.39,0.88-0.55,1.86-0.92,3.19
	c-3.23-3.69-4.1-7.51-2.82-11.8c1.38-4.61,4.89-6.84,9.32-7.7c8.03-1.55,16.09,2.36,20.35,9.58c2.45,4.15,3.24,8.63,2.72,13.04
	c3.86,0.2,7.5,0.39,10.82,0.57c-0.75-2.9-2.23-6.09-2.25-9.28c-0.04-4.52-2-7.78-4.98-10.6c-2.54-2.41-5.21-4.84-8.22-6.58
	c-16.65-9.61-35.14-0.28-37.57,18.8c-0.12,0.91-0.31,1.82-0.55,3.23c-5.88-9.3-6.19-20.4-0.42-27.19
	c9.42-11.11,20.95-12.24,34.25-5.48c-4.47-7.97-10.63-12.79-18.15-15.95c-9.13-3.83-18.72-4.52-28.45-3.5
	c-9.65,1.02-19.17,1.58-28.66-1.55c-9.43-3.11-19.02-2.72-28.5,0.33c-6.21,1.99-12.57,2.74-19.07,1.98
	c-3.92-0.45-7.83-0.99-11.75-1.44c-12.37-1.42-23.53,1.7-33.19,9.51c-3.29,2.66-5.94,6.11-8.89,9.2c0.21,0.2,0.43,0.41,0.64,0.61
	c2.47-0.96,4.88-2.11,7.42-2.82c2.58-0.72,5.27-1.22,7.94-1.44c9.87-0.81,17.31,3.36,21.4,11.8c3.81,7.87,2.59,19.36-2.89,25.37
	c-0.1-1.08-0.19-1.96-0.26-2.83c-1.21-13.8-9.53-21.83-22.86-22.37c-12.47-0.5-21.43,5.23-28.16,15.22
	c-0.52,0.77-1.02,1.56-1.53,2.34c1.5-12.52,6.03-23.61,14.62-32.78c10.81-11.55,24.56-17.43,39.83-20.2
	c4.32-0.78,8.71-1.15,14.01-1.82c-2.99-4.21-5.22-8.26-8.29-11.51c-11.18-11.82-24.81-18.46-41.13-14.3
	c-16.12,4.11-27.9,14.17-32.49,30.86c-6.25,22.73-0.3,43.86,8.97,64.74c4.07-3.07,8.49-3.51,13.08-2.45c0-1.58-0.02-2.81,0-4.03
	c0.27-11.95,11.51-21.23,23.1-19.09C230.84,324.04,234.39,333.83,227.94,341.66z M143.07,557.02c0-0.95,0-1.98,0-3.01
	c0.03-12.78,8.54-23.28,21.11-25.06c5.04-0.71,10.33-0.11,15.46,0.32c4.69,0.39,5.02,0.29,5.77-4.39c0.8-5.05,0.15-9.32-3.65-13.35
	c-5.19-5.51-9.74-11.62-14.48-17.54c-12.6-15.73-25.04-31.57-34.8-49.32c-7.71-14.01-12.02-28.7-9.42-44.84
	c1.5-9.32,3.17-18.62,4.74-27.93c0.64-3.78,1.23-7.56,1.98-12.14c-28.74,17.72-51.29,39.98-67.52,68.83c3,0.76,5.18,1.4,5.74,4.59
	c1.45,8.27,7.36,12.15,15.8,10.78c1.79-0.29,2.34-1.04,2.11-2.96c-0.4-3.29-0.5-6.63-0.48-9.95c0.02-3.76,1.2-5,4.1-4.88
	c4.18,0.17,6.44,2.17,6.26,5.65c-0.14,2.7-0.69,5.41-0.49,8.07c0.1,1.33,1.22,3.31,2.35,3.72c8.16,2.96,16.55-3.36,16.12-11.91
	c-0.17-3.35,0.71-4.2,4.18-4.09c3.52,0.11,6.29,2.39,5.98,4.93c-0.9,7.37-7.98,14.65-15.25,15.83c-3.27,0.53-6.53,1.2-9.75,2
	c-1.38,0.34-2.64,1.18-3.95,1.79c1.08,0.85,1.96,1.02,2.85,1.05c6.12,0.21,12.25,0.32,18.37,0.62c2.04,0.1,4.17,0.39,6.05,1.13
	c1.12,0.44,2.66,2.08,2.52,2.91c-0.2,1.14-1.67,2.5-2.89,2.91c-1.71,0.57-3.68,0.44-5.53,0.46c-15.36,0.21-30.72,0.39-46.07,0.58
	c-4.23,0.05-8.46,0.24-12.68,0c-0.89-0.05-2.3-1.66-2.36-2.62c-0.05-0.81,1.38-1.92,2.39-2.53c0.72-0.44,1.81-0.31,2.74-0.36
	c7.67-0.43,15.35-0.79,23.01-1.34c1.16-0.08,2.26-1.07,3.39-1.63c-0.9-0.84-1.69-2.21-2.73-2.43c-3.13-0.66-6.36-1.25-9.54-1.2
	c-6.88,0.11-11.37-3.2-14.41-9.02c-0.65-1.24-1.26-2.49-2.07-4.08c-6.54,13.32-11.34,26.71-14.56,40.81
	c6.32,1.17,8.15,5.96,9.31,11.03c0.56,2.44,1.74,3.68,3.99,4.07c1.42,0.24,2.89,0.34,4.34,0.34c21.1,0.02,42.2,0.02,63.29,0.01
	c1.04,0,2.07-0.08,3.11-0.14c2.45-0.15,3.99-1.25,4.63-3.78c0.76-3.01,1.82-5.94,2.73-8.92c1.45-4.75,4.5-5.57,8-2.06
	c1.89,1.9,2.6,4.07,1.45,6.79c-3.55,8.37-3.25,16.79,0.05,25.16c1.67,4.23,0.87,6.43-2.84,7.65c-3.98,1.3-6.57-0.12-7.64-4.39
	c-0.94-3.72-1.81-7.47-2.43-11.25c-0.32-1.92-1.11-2.72-2.99-2.81c-3.21-0.14-6.43-0.38-9.64-0.6c-4.22-0.29-7.7,1.12-10.48,4.36
	c-2.09,2.44-4.14,4.94-6.51,7.09c-2.02,1.84-2.59,3.65-1.32,6.03c0.73,1.37,1.64,2.67,2.24,4.09c1.45,3.42,3.11,6.81,4.03,10.38
	c0.87,3.38,0.57,5.69-3.6,6.47c-3.02,0.56-4.5,2.94-4.37,5.98c0.03,0.81,0.93,2.09,1.67,2.3c6.85,1.96,15.52-3.03,17-10
	c0.74-3.51,0.94-7.22,0.78-10.81c-0.23-5.07-1.08-10.11-1.56-15.17c-0.22-2.35,0-4.71,2.7-5.66c2.64-0.93,4.78,0.15,6.14,2.38
	c0.83,1.36,1.47,3.02,1.56,4.58c0.22,3.93,0.45,7.93-0.01,11.81c-0.81,6.76-1.76,13.56-3.39,20.16c-1.28,5.16-5.04,7.95-10.76,8.23
	c-3.99,0.19-7.96,1.29-11.89,2.22c-0.91,0.21-1.59,1.39-2.37,2.12c0.98,0.58,1.93,1.57,2.95,1.65c3.41,0.27,6.85,0.28,10.27,0.29
	C122.16,557.04,132.42,557.02,143.07,557.02z M41.6,487.12c-0.29,0.85-0.48,1.23-0.55,1.63c-0.51,3.18-1.07,6.35-1.47,9.54
	c-3.32,26.69-2.58,53.29,2.49,79.7c6.78,35.33,21.33,66.9,45.97,93.46c2.49,2.68,5.15,5.21,8.13,8.2
	c2.26-11.95,3.33-23.16,2.27-34.53c-0.51-5.55-1.29-11.17-0.92-16.7c0.47-7.07,4.53-10.21,11.56-10.41c1.96-0.06,4.01-0.03,5.85-0.6
	c1.27-0.4,3.09-1.71,3.14-2.69c0.07-1.3-1.04-3.24-2.2-3.88c-1.82-1-4.12-1.58-6.22-1.57c-5.18,0.03-8.06-2.69-9.76-7.18
	c-2.5-6.62-3.01-13.55-2.97-20.53c0.01-1.17,0.43-2.7,1.24-3.42c1.43-1.28,3.25-2.67,5-2.81c0.82-0.07,2.07,2.59,2.74,4.17
	c0.41,0.96,0.1,2.24,0.08,3.37c-0.06,3.63-0.4,7.28-0.16,10.89c0.5,7.42,2.85,9.34,10.24,9.32c2.47-0.01,3.68-0.96,3.83-3.39
	c0.25-4.15,1-8.32,0.7-12.43c-0.71-9.71,5.39-12.6,12.29-12.9c5.08-0.22,10.18-0.15,15.27-0.2c1.56-0.02,3.13,0,4.74,0
	c-2.3-2.53-4.29-4.76-6.34-6.93c-0.45-0.47-1.08-0.96-1.68-1.05c-1.93-0.31-3.91-0.38-5.85-0.66c-17.96-2.61-36.02-2.75-54.08-1.85
	c-10.78,0.54-21.53,1.69-32.3,2.29c-2.56,0.14-5.44-0.29-7.72-1.39c-2.79-1.35-2.37-4.57,0.58-5.56c2.33-0.78,4.83-1.32,7.28-1.41
	c7.89-0.3,15.78-0.32,23.68-0.49c3.94-0.08,7.9-0.12,11.82-0.45c1.03-0.09,1.98-1.18,2.97-1.81c-0.83-0.63-1.59-1.62-2.51-1.83
	c-4.95-1.13-9.91-2.27-14.92-3c-4.15-0.6-7.27-2.42-9.21-6.07c-1.06-2-1.98-4.13-2.58-6.31c-2.7-9.77-2.16-19.77-1.84-29.73
	c0.1-3.17,2.34-4.98,5.03-4.78c3.23,0.23,5.45,2.48,5.46,5.64c0.01,1.24-0.26,2.48-0.28,3.73c-0.12,6.53-0.62,13.09-0.21,19.59
	c0.67,10.52,6.94,13.87,16.77,13.45c0.92-0.04,2.3-1.17,2.52-2.04c0.23-0.87-0.44-2.39-1.22-3.01c-1.26-1.01-2.87-1.65-4.41-2.21
	c-4.66-1.67-5.95-3.27-4.61-8.07c1.26-4.52,3.18-8.91,5.28-13.12c1.33-2.66,2.45-4.97-0.34-7.12c-4.6-3.55-9.3-6.97-14.01-10.36
	c-0.63-0.45-1.58-0.63-2.38-0.62c-3.84,0.07-7.67,0.23-11.51,0.4c-2.19,0.09-3.2,1.21-3.58,3.46c-0.65,3.88-1.59,7.72-2.62,11.52
	c-0.73,2.69-2.15,5.1-5.08,5.8c-1.28,0.3-3.08,0.22-4.02-0.5c-0.69-0.54-0.68-2.45-0.45-3.65c1.16-5.9,2.57-11.76,3.73-17.66
	C45.07,494.41,44.31,490.74,41.6,487.12z M120.38,698.02c0.42-0.08,0.85-0.16,1.27-0.24c2.38-9.44,4.91-18.84,7.07-28.32
	c0.99-4.32,1.39-8.8,1.79-13.23c0.23-2.61-0.98-4.38-3.99-4.27c-2.38,0.09-4.76,0.16-7.14,0.08c-2.18-0.08-4.32-0.73-4.75-3.19
	c-0.42-2.41,1.49-3.46,3.41-4.17c0.96-0.35,2.01-0.6,3.03-0.63c10.58-0.32,21.17-0.69,31.76-0.84c9.57-0.14,13.13,3.35,13.61,12.9
	c0.06,1.14-0.02,2.28-0.09,3.42c-0.99,14.52-1.86,29.02,1.63,43.4c0.54,2.23,0.32,4.74-0.01,7.06c-0.31,2.16-1.66,3.96-4.11,4
	c-2.58,0.04-3.15-2.08-3.44-4.07c-1.74-11.82-3.41-23.64-2.58-35.65c0.33-4.76,0.79-9.53,0.86-14.29c0.06-3.79-1.68-6.06-5.19-6.77
	c-2.82-0.57-5.76-0.67-8.65-0.7c-2.8-0.03-4.71,1.52-5.51,4.21c-0.92,3.08-1.83,6.16-2.53,9.3c-2.48,11.13-4.75,22.32-7.4,33.41
	c-0.61,2.58-0.32,3.79,2.03,5.11c18.53,10.48,38.36,17.33,59.21,21.22c9.56,1.78,19.25,2.85,29.68,4.35
	c-9.24-16.36-5.8-30.65,4.55-44.31c-1.33-0.2-2.24-0.35-3.15-0.47c-5.8-0.74-10.69-3.27-14.64-7.54c-4.97-5.37-6.3-6.1-12.58-9.41
	c-4.31-2.27-8.23-5.29-12.36-8c0.09,0.96,0.12,2.27,0.35,3.56c1.07,5.92,2.06,11.87,3.33,17.75c1.1,5.07,2.6,10.04,3.79,15.09
	c0.48,2.06,0.72,4.51-1.89,5.23c-2.42,0.67-3.32-1.53-4.18-3.33c-0.04-0.09-0.09-0.19-0.12-0.29c-7.11-20.12-10.28-40.8-8.75-62.14
	c0.38-5.37,0.91-10.77,0.73-16.14c-0.2-6.12-2.99-9.19-8.21-9.42c-10.69-0.47-21.38-0.7-32.08-0.91c-1.61-0.03-3.36,0.34-4.8,1.03
	c-0.78,0.37-1.37,1.77-1.44,2.75c-0.04,0.57,0.99,1.55,1.72,1.79c1.25,0.42,2.64,0.56,3.97,0.56c8.63,0.05,17.25-0.05,25.88,0.08
	c1.78,0.03,3.78,0.47,5.25,1.4c0.94,0.6,1.32,2.43,1.41,3.75c0.02,0.33-1.97,1.15-3.05,1.18c-4.15,0.09-8.31-0.07-12.46-0.12
	c-6.13-0.08-12.26-0.3-18.38-0.13c-1.46,0.04-3.74,1.07-4.15,2.19c-0.81,2.24,0.12,4.6,2.6,5.64c1.4,0.59,2.99,1.05,4.49,1.06
	c9.23,0.07,18.46-0.02,27.7-0.04c2.72-0.01,4.95,1.7,4.84,3.79c-0.15,2.73-2.33,2.99-4.31,2.98c-11.42-0.08-22.85-0.02-34.25-0.51
	c-8.32-0.36-10.12-2.56-10.58-10.84c-0.1-1.73-0.57-3.16-2.67-3.04c-2.17,0.12-4.35,0.31-6.51,0.61c-2.7,0.38-4.33,1.85-4.36,4.75
	c-0.03,2.28-0.26,4.57-0.13,6.83c0.96,16.1,1.4,32.17-2.6,48.01c-0.21,0.85,0.26,2.37,0.94,2.87
	C109.55,690.37,114.98,694.17,120.38,698.02z M318.01,421.24c-0.54-2.09-0.93-4.23-1.64-6.26c-2.69-7.76-7.44-13.39-16.01-14.77
	c-12.52-2.02-22.64,4.15-26.53,16.25c-0.58,1.82-1.34,2.61-3.25,2.95c-7.01,1.24-12.06,5.34-15.39,11.5
	c-3.63,6.72-1.77,14.57,4.33,19.2c4.31,3.27,10.98,2.71,14.36-1.07c-2.67-0.84-5.46-1.57-8.13-2.62c-2.07-0.81-3.59-2.41-2.9-4.85
	c0.75-2.63,3.12-2.47,5.17-2.23c4.15,0.49,7.34,2.73,9.77,6.04c1.53,2.09,3.06,4.2,4.39,6.42c5.4,8.99,22.96,10.38,28.66-1.38
	c0.5-1.02,1.1-2,1.72-2.96c2.66-4.09,6.63-6.2,11.26-7.08c2.44-0.46,4.7,0.25,5.44,2.96c0.72,2.67-1.1,4.05-3.26,4.89
	c-1.23,0.48-2.6,0.72-3.92,0.85c-1.45,0.14-2.92,0.03-4.54,0.03c4.2,5.25,9.91,6.55,14.86,2.69c2.71-2.11,5.05-5.26,6.43-8.43
	C342.93,433.98,333.99,416.8,318.01,421.24z M398.29,262.82c-1.15-2.53-2.07-4.82-3.23-7c-0.48-0.91-1.31-1.89-2.21-2.27
	c-7.25-3.03-14.8-4.1-22.53-2.54c-16.13,3.25-27.13,13.57-36.08,26.59c-0.12,0.18,0.04,0.55,0.06,0.83
	c38.47,0.4,60.21,19.19,67.69,46.82c3.21-4.52,6.71-9.45,10.21-14.38c1.5-2.12,3.11-4.17,4.44-6.39c0.72-1.19,1.28-2.66,1.33-4.03
	c0.16-4.25,0.34-8.53-0.05-12.75c-0.31-3.35-0.37-7.65-2.4-9.73c-5.05-5.22-9.71-10.43-11.72-17.78
	C401.93,261.08,400.37,261.83,398.29,262.82z M224.75,574.56c-12.34,6.33-25.05,7.19-38.15,4.8c-0.66-0.12-1.83-0.13-2.01,0.21
	c-1.57,2.97-4.31,2.04-6.65,2.02c-7.37-0.05-14.73-0.37-22.1-0.41c-1.93-0.01-4.09,0.16-5.73,1.03c-1.29,0.68-2.26,2.46-2.72,3.96
	c-0.13,0.43,1.89,1.97,3.11,2.27c2.19,0.53,4.52,0.65,6.79,0.68c7.27,0.08,14.54-0.05,21.81,0.09c3.32,0.06,6.23,2.4,5.74,4.52
	c-0.7,3-3.5,3.03-5.79,2.95c-9.96-0.33-19.92-0.67-29.85-1.4c-7.84-0.58-9.24-2.34-10.29-9.99c-0.18-1.29-1.22-3.09-2.31-3.52
	c-3.5-1.39-6.57,0.42-7.07,4.2c-0.53,3.99-0.56,8.05-0.68,12.08c-0.12,3.68,1.42,5.33,5.14,5.51c2.69,0.13,5.4,0.07,8.1,0.02
	c9.13-0.18,18.26-0.46,27.39-0.58c8.18-0.11,12.76,3.88,13.83,12.04c0.25,1.93,0.19,3.94-0.02,5.89c-0.35,3.16-0.93,6.3-1.42,9.45
	c5.19-8,12.69-12.21,21.85-13.52c8.89-1.27,17.54-0.02,26.05,3.78C233.56,604.5,230.45,589.53,224.75,574.56z M472.18,554.88
	c7.47,9.28,16.74,13.67,28.45,13.08c-5.34-15.76-22.65-35.1-52.13-33.52c-21.23,1.14-43.54,18.8-46.1,36.81
	c11.11-1.07,19.49-7.06,27.17-14.65c4.43,9.05,11.39,15.25,19.54,20.35c1.74,1.08,3.01,1.1,4.76-0.01
	C462.19,571.65,468.29,564.55,472.18,554.88z M268.73,389.34c-4.27,5.06-9.85,8.18-16.57,9.08c-12.36,1.65-21.67-3.79-29.47-12.76
	c-4.01-4.62-7.89-9.41-12.36-13.55c-2.89-2.68-6.56-4.75-10.21-6.3c-4.06-1.73-7.67,0.02-9.62,3.93c-2.23,4.47-2.43,9.24-1.84,14.76
	c0.77-1.24,1.16-1.93,1.61-2.58c3.85-5.67,9.95-6.82,15.24-2.51c2.2,1.79,3.85,4.29,5.64,6.56c3.6,4.55,6.86,9.39,10.73,13.69
	c6.15,6.84,13.98,9.18,22.89,6.7c3.52-0.98,6.82-2.76,10.22-4.17c0.22,0.17,0.44,0.34,0.66,0.52c-3.63,4.01-6.9,8.42-10.97,11.93
	c-5.76,4.98-12.23,5.11-18.74,1.14c-2.11-1.29-4.2-2.78-5.86-4.59c-3.64-3.97-6.97-8.23-10.49-12.31c-2.16-2.51-4.23-5.16-6.73-7.3
	c-3.24-2.76-5.94-2.09-8.28,1.52c-3.3,5.08-1.63,12.89,3.61,16.88c4.39-3.81,6.59-3.64,10.12,1.15c1.78,2.41,3.16,5.12,4.81,7.63
	c2.85,4.32,5.46,8.86,8.74,12.84c5.91,7.17,15.23,8.84,22.32,4.23c1.38-0.9,2.59-2.65,3.07-4.25c2.44-8.06,7.2-14.34,15.08-17.09
	c4.34-1.51,7.03-3.63,8.56-7.69c0.43-1.13,1.63-2.32,1.43-3.27C271.32,398.76,269.97,394.11,268.73,389.34z M333.07,401.85
	c1.08,0.62,2.14,1.28,3.23,1.86c11.21,5.93,21.46,4.48,30.07-4.39c3.11-3.2,5.86-6.74,8.96-9.94c3.6-3.7,7.11-7.59,11.21-10.65
	c4.71-3.52,10.45-2.13,13.94,2.65c0.95,1.3,1.64,2.79,2.49,4.27c2.37-4.95,0.59-15.07-3.13-18.5c-2.23-2.06-4.9-2.49-7.53-1.43
	c-2.75,1.11-5.68,2.35-7.83,4.3c-4.45,4.02-8.38,8.6-12.63,12.85c-3.72,3.73-7.17,7.92-11.45,10.88
	c-13.71,9.46-31.08,4.69-37.74-5.85c-0.18-0.28-0.54-0.45-0.54-0.45c-0.92,4.6-1.85,9.14-2.71,13.7c-0.12,0.63-0.07,1.43,0.21,1.99
	c1.82,3.56,3.72,7.08,5.69,10.8c4.33-0.13,8.55,1.13,12.13,4.1c4.51,3.75,7.02,8.7,7.85,14.43c0.32,2.22,1.32,3.44,3.32,4.35
	c6.95,3.19,15.23,1.4,20.7-5.33c3.58-4.4,6.36-9.45,9.55-14.17c1.91-2.83,3.75-5.73,5.93-8.34c1.87-2.25,4.27-2.33,6.6-0.38
	c0.61,0.51,1.24,1,1.92,1.55c3.28-3.81,5.53-7.84,4.82-12.86c-0.44-3.08-1.73-5.91-4.87-7.08c-2.93-1.1-5,0.94-6.73,2.81
	c-2.53,2.74-4.82,5.7-7.1,8.66c-4.07,5.3-8.37,10.34-14.26,13.74c-5.29,3.06-10.85,4.1-16.71,1.79
	C341.15,414.32,336.65,408.49,333.07,401.85z M363.97,464.57c0.24-0.24,0.48-0.49,0.72-0.73c0.55,0.2,1.1,0.39,1.65,0.6
	c7.42,2.8,13.52,0.55,16.7-6.65c2-4.53,3.83-9.25,4.86-14.07c0.94-4.38,0.92-9.03,0.81-13.54c-0.03-1.42-1.45-3.48-2.73-3.99
	c-1.01-0.4-2.95,0.91-4.18,1.85c-1.21,0.92-2.06,2.32-3.03,3.53c-2.33,2.92-4.51,5.97-6.98,8.77c-4.47,5.07-9.89,8.76-16.86,8.9
	c-3.76,0.08-7.55-0.86-11.64-1.38c-2.38,4.79-5.96,8.87-11.43,10.83c-5.54,1.99-10.79,0.69-15.83-2.07
	c-3.85,5.28-8.74,8.75-14.84,10.53c-0.12,0.3-0.24,0.6-0.36,0.9c4.56,3.29,9.11,6.59,13.45,9.72c1.59-2.46,2.85-4.42,4.54-7.03
	c2.08,6.12,5.09,9.97,10.94,11.24c-0.61-5.08,1.25-9.05,3.61-13.42c4.13,10.05,11.67,14.2,19.21,11.07
	c-3.52-3.14-4.44-7.13-4.14-12.12c6.79,5.72,13.91,7.92,21.9,5.09C368.16,469.87,366.06,467.22,363.97,464.57z M274.09,455.6
	c-11.02,3.81-17.03,2.24-22.79-6.17c-1.51-2.2-2.68-2.67-5.19-1.73c-9.55,3.58-18.02,1.67-24.9-5.92
	c-3.05-3.37-5.58-7.22-8.46-10.76c-1.7-2.08-3.22-5.45-6.48-4.13c-3.17,1.29-2.75,4.89-2.49,7.73c0.8,8.74,3.92,16.74,8.62,24.09
	c2.26,3.53,5.66,5.56,9.98,5.23c2.47-0.19,4.91-0.92,7.36-1.41c0.19,0.15,0.38,0.3,0.57,0.46c-2.22,2.73-4.44,5.45-6.72,8.26
	c7.07,3.49,13.02-0.04,19.06-3.66c0.32,4.92-0.85,8.94-4.21,12.28c8.73,2.35,14.69-1.1,19.28-11.13c2.65,4.13,4.5,8.23,3.55,13.29
	c5.94-1.31,8.96-5.22,10.95-11.26c1.71,2.64,3.01,4.65,4.68,7.23c4.69-3.24,9.56-6.59,14.43-9.94c-0.11-0.35-0.22-0.7-0.33-1.06
	C283.66,465.57,277.93,461.77,274.09,455.6z M417.51,454.13c4.43-2.64,8.66-4.51,12.07-7.37c3.41-2.86,6-6.69,9-10.16
	c4.67,7.06,11.23,11.94,18.8,15.71c2.41,1.2,4.06,1.02,5.54-1.09c2.78-3.97,5.82-7.8,8.16-12.01c1.7-3.06,2.44-6.65,3.46-9.58
	c4.26,2.56,8.6,5.16,12.94,7.76c0.3-0.35,0.6-0.69,0.9-1.04c-2.74-4.7-6.02-9.18-8.11-14.16c-4.09-9.71-12.05-10.85-20.92-10.57
	c-1.55,0.05-3.09,0.32-4.64,0.51C435.27,414.49,417.63,433.84,417.51,454.13z M197.04,247.4c6.98-2.39,14.05-3.71,21.39-3.66
	c1.28,0.01,2.99-0.81,3.79-1.81c15.35-19.1,35.26-27.26,59.54-25.1c1.09,0.1,2.18,0.12,3.38,0.18c0.69-6.36-0.23-12.26-1.58-18.15
	c-0.45-1.95-1.35-2.47-3.17-2.54c-7.96-0.28-15.77,0.48-23.37,2.93C230.98,207.67,212.87,226.03,197.04,247.4z M427.84,653.09
	c-0.14-0.82-0.17-1.23-0.28-1.61c-8.75-30.09-41.07-37.29-60.86-27.34c-0.79,0.4-1.48,1.1-2.07,1.78
	c-3.41,3.89-6.78,7.81-10.14,11.74c-1.97,2.3-3.88,4.65-6.28,7.53c9.03-0.5,15.76-4.24,22.18-9.04c2.67,7.6,7.49,13.3,13.35,18.29
	c1.76,1.5,3.18,1.67,5.27,0.65c7.09-3.48,12.62-8.58,16.76-15.63C410.93,647.65,417.95,652.31,427.84,653.09z M408.98,139.43
	c-7.68-8.14-15.34-16.3-23.06-24.4c-0.53-0.56-1.41-0.87-2.19-1.1c-21.82-6.33-42.77,1.23-53.5,22.58
	c-0.34,0.68-0.52,1.43-0.89,2.46c9.33-0.37,16.45-4.77,23.2-10.42c3.33,7.17,8.58,12.21,14.71,16.52c1.88,1.32,3.34,1.35,5.32,0.22
	c6.71-3.85,11.87-9.13,15.31-16.14C395.93,137.47,401.48,140.4,408.98,139.43z M407.18,709.44c29.99-15.41,54.72-37.13,72.56-66.74
	c-2.16-1.29-4-2.38-6.03-3.59c-2.14,10.72-8.16,18.56-16.18,25.12c-1.42,1.16-2.51,1.4-4.11,0.35
	c-7.51-4.97-13.67-11.13-17.53-19.38c-0.6-1.28-1.14-2.58-1.8-4.08c-1.07,0.77-1.88,1.35-2.35,1.69c1.2,5.55,2.31,10.74,3.51,16.31
	c-3.08-0.24-5.3-0.42-7.55-0.59c-0.04,16.85-4.82,30.63-12.4,36.12c-1.05-0.72-2.1-1.44-2.64-1.81
	C410.81,698.47,408.98,704,407.18,709.44z M164.01,205.47c-5.53-16.68-26.15-29.59-42.94-27.06c-3.63,0.55-6.93,2.49-7.98,6.12
	c-1.78,6.15-3.01,12.47-4.21,18.77c-0.22,1.17,0.37,3.02,1.25,3.79c3.42,2.99,7.12,5.66,10.69,8.46c2.04,1.6,3.73,1.22,5.7-0.4
	c6.33-5.2,10.6-11.74,13.14-19.78C146.16,202.91,154,206.49,164.01,205.47z M265.5,491.76c1.59,8.35,9.49,15.61,18.34,16.85
	c5.1,0.71,9.62,2.28,13.05,6.56c2.32-3.55,5.83-4.69,9.47-5.81c3.85-1.18,7.71-2.48,11.31-4.26c5.33-2.64,8.06-7.41,9.72-13.45
	c-8.42-2.34-16.42-4.88-24.58-6.71c-3.84-0.86-8.17-1.14-11.97-0.29C282.27,486.57,273.9,489.35,265.5,491.76z M507.4,563.34
	c4.04-27.57,3.65-54.79-2.74-82.38c-1.02,2.36-1.83,4.21-2.68,6.18c-0.89-0.39-1.44-0.66-2.01-0.86c-0.61-0.22-1.25-0.38-2.2-0.67
	c1.46,8.72,2.06,17.02-2.4,24.95c-2.2-0.9-4.25-1.74-6.6-2.7c0.06,9.64-3.55,17.54-9.01,24.91
	C493.08,539.38,501.69,550,507.4,563.34z M342.39,658.28c-6.42,8.84-12.62,17.13-18.54,25.63c-3.21,4.61-2.78,5.43,2.2,8.33
	c4.56,2.66,9.34,5.04,13.56,8.17c8.22,6.1,11.02,15.37,8.22,25.15c-0.13,0.44-0.12,0.92-0.26,2.04c8.74-1.8,17.03-3.51,24.96-5.15
	c-2.88-5.78-5.48-11-8.11-16.29c-1.64,0.71-3.61,1.58-5.76,2.51c-3.81-6.78-5.58-13.92-6.32-21.55c-1.48,0.46-2.73,0.85-4.62,1.45
	c-1.34-4.99-2.96-9.69-3.81-14.53C343.03,669.1,342.91,664.03,342.39,658.28z M254.14,723.66c-1.54-1.77-2.8-3.86-4.63-5.12
	c-1.98-1.36-4.45-0.96-6.4,0.62c-2.73,2.2-3.1,5.24-2.75,8.48c0.19,1.81,1,2.63,3.03,2.59c6.02-0.14,12.05-0.05,18.08-0.05
	c5.98,0,9.75-2.9,11.36-8.75c1.77-6.42-0.13-12.82-6.22-16.55c-4.96-3.03-10.58-5.19-16.15-6.97c-6.74-2.16-9.79-5.37-10.09-12.35
	c-0.02-0.37-0.07-0.74-0.2-2.12c-3.1,4.14-5.85,7.47-8.23,11.05c-3.46,5.22-6.29,10.75-6.86,17.16c-0.52,5.88,2.97,12.2,7.97,13.94
	c0.12-1.28,0.24-2.49,0.36-3.7c0.21-2.27,0.22-4.58,0.68-6.79c1.08-5.16,4.91-7.1,9.69-7.78c4.52-0.65,9.1,1.19,11.06,4.76
	C257.1,716.24,256.31,720.22,254.14,723.66z M282.05,58.41c9.66,0.32,17.17-3.32,24.24-8.53c2.53,7.95,7.19,14.09,13.32,19.14
	c0.75,0.62,2.32,0.96,3.2,0.62c6.35-2.45,11.59-6.46,15.54-12.01c0.55-0.77,0.62-2.34,0.23-3.25c-2.46-5.71-5.09-11.36-7.75-16.99
	c-0.34-0.73-1.13-1.78-1.72-1.78c-6.85-0.08-13.99-1.19-20.51,0.32C296.54,38.71,288.43,47.2,282.05,58.41z M301.64,730.18
	c2.16,0,4.35-0.18,6.5,0.04c2.89,0.3,4.19-1.11,4.7-3.68c1.73-8.75-0.64-16.63-6.19-23.22c-8.02-9.51-27.05-14.05-38.8-9.8
	c-1.6,0.58-3.01,1.7-4.89,2.79c20.03,8.83,23.79,15.31,20.1,33.75c3,0,5.98,0,8.84,0c0.91-2.25,1.52-4.49,2.65-6.42
	c1.6-2.73,4.11-2.5,5.3,0.42C300.61,725.95,301.01,728.01,301.64,730.18z M386.02,208.66c7.88-0.11,14.02-3.89,19.88-8.62
	c2.6,6.39,6.78,11.15,11.95,15.19c1.6,1.25,2.83,1.23,4.47,0.31c5.87-3.28,10.4-7.84,13.47-13.89c1.04,1.15,1.99,2.19,2.94,3.23
	c-0.29-4.52-1.18-8.67-1.93-12.85c-0.39-2.19-1.58-3.29-3.68-4.03c-5.68-2-11.49-2.7-17.46-2.27
	C401.5,186.77,389.86,198.04,386.02,208.66z M368.79,232.63c-0.54-0.7-1.11-1.38-1.62-2.1c-3.9-5.62-8.34-10.95-11.5-16.96
	c-2.77-5.24-6.66-8.48-11.81-10.71c-0.95-0.41-1.87-0.88-2.83-1.29c-10.84-4.64-22.04-7.09-33.71-5.79
	c0.74,7.11,1.47,14.04,2.21,21.1C331.42,214.19,351.41,218.31,368.79,232.63z M286.57,246.85c-0.28-3.98-0.62-7.48-0.74-11
	c-0.07-2.23-0.81-3.18-3.22-3.5c-17.69-2.35-33.7,1.92-48.34,11.86c-0.71,0.48-1.33,1.09-1.51,1.23
	c8.18,4.45,16.31,8.88,24.69,13.44C264.98,250.99,275.08,247.6,286.57,246.85z M212.56,116.56c-6.42-12.49-15.6-20.7-28.83-23.95
	c-0.8-0.2-2.11,0.48-2.79,1.16c-4.99,4.99-9.88,10.08-14.8,15.15c-2.78,2.87-5.54,5.76-8.83,9.19c4.52,2.96,8.61,5.75,12.83,8.31
	c0.7,0.42,2.21,0.17,3-0.33c5.55-3.52,9.79-8.28,12.75-14.17c0.72-1.44,1.35-2.93,2.13-4.62
	C194.66,114.45,202.53,117.57,212.56,116.56z M277.06,47.67c-2.21-4.62-5.03-8.37-8.51-11.63c-0.44-0.42-1.33-0.5-2.02-0.5
	c-15.78-0.03-31.56-0.03-47.34,0.02c-0.71,0-1.8,0.33-2.06,0.84c-2.11,4.08-4.05,8.25-6.05,12.39c0.27,0.21,0.54,0.42,0.81,0.64
	c1.67-1.92,3.35-3.83,5.08-5.82c4.24,6.83,10.25,11.29,17.08,14.84c1.93,1.01,3.34,0.84,5.03-0.51c4.44-3.55,8.19-7.63,10.71-12.76
	c0.93-1.89,1.74-3.83,2.69-5.94C259.26,46.21,267.23,48.94,277.06,47.67z M410.94,541.21c9.65-9.32,21.84-13.34,35.55-14.41
	c-0.24-4.03,0.46-8.1-0.89-11.32c-2.41-5.75-6.07-10.99-9.29-16.59c-0.83,0.6-1.94,1.41-3.35,2.43c-2.58-3.86-5.07-7.58-7.14-10.67
	C420.9,507.39,415.9,524.36,410.94,541.21z M248.44,651.46c-3.88-1.66-7.62-3-11.12-4.81c-4.63-2.41-9.36-3.81-14.62-3.19
	c-8.93,1.05-16.83,12.51-14.04,20.12c3.34-1.75,6.6-3.78,10.11-5.2c2.81-1.14,4.68,0.41,4.01,3.35c-0.6,2.66-1.8,5.3-3.3,7.59
	c-1.29,1.99-1.05,3.6,0.66,4.4c3.6,1.67,7.41,2.9,11.19,4.14c0.52,0.17,1.59-0.45,2.03-1.01
	C239.67,668.83,244.22,659.79,248.44,651.46z M207.26,571.13c4.1-2.03,6.19-6.11,9.04-9.47c1.15-1.36,1.1-2.45,0.14-3.85
	c-3.66-5.29-7.21-10.65-10.89-15.93c-0.55-0.79-1.47-1.5-2.38-1.84c-8.54-3.27-19.18-0.3-24.77,6.83
	c-8.28,10.57-3.27,24.01,9.84,26.43c3.87,0.71,7.37-1.13,9.16-4.83c1.66-3.43,1.23-6.53-1.22-8.85c-2.78-2.62-6.95-3.03-10.34-0.79
	c-1.6,1.05-2.94,2.48-4.5,3.82c-0.09-0.41-0.21-0.69-0.21-0.97c-0.07-6.82,4.57-12.46,11.04-13.43c6.78-1.01,13.45,3.39,14.95,10.69
	C207.9,562.77,207.26,566.87,207.26,571.13z M313.48,247.77c1.31,0,2.45-0.16,3.53,0.03c5.48,0.96,11,1.77,16.38,3.14
	c2.89,0.74,5.59,3.66,8.24,3.49c2.75-0.17,5.27-3.05,8.04-4.42c4.12-2.04,8.37-3.79,12.94-5.83c-15.42-12.11-32.59-14.77-51.5-11.73
	C311.93,237.7,312.68,242.57,313.48,247.77z M453.6,622.05c6.05-6.04,10.3-12.71,12.82-20.44c0.27-0.83,0.47-2,0.09-2.68
	c-2.81-5.17-5.77-10.26-8.96-15.85c-4.06,5.08-8.18,4.28-12.25,0.26c-2.58,5.15-4.97,9.86-7.26,14.62
	c-0.32,0.65-0.36,1.61-0.15,2.32C440.58,609.23,446.11,616.15,453.6,622.05z M371.43,361.97c-5.76-1.66-11.54-3.69-17.49-4.92
	c-5.13-1.05-10.48-1.83-15.67-1.58c-9.73,0.46-16.43,7.63-13.53,19.28c5.85-9.55,15.82-12.07,24.55-6.2
	c8.13,5.47,8.68,13.28,1.28,23.32c1.67-0.51,2.99-0.74,4.16-1.29c7.32-3.42,11.13-9.67,13.43-17.05
	C369.36,369.7,370.36,365.79,371.43,361.97z M476.32,569.23c-2.34,2.26-5.16,4.72-7.62,7.51c-0.82,0.93-1.3,2.83-0.96,4.01
	c1.97,6.86,5.45,13.01,10.24,18.27c3.65,4,7.76,7.58,11.85,11.51c3.9-7.96,6.21-22.7,4.79-30.19c-0.2-1.08-1.19-2.37-2.17-2.89
	C487.2,574.63,481.84,572.02,476.32,569.23z M414.48,611.03c10.57-8,18.24-17.53,21.89-29.94c0.32-1.07,0.14-2.82-0.55-3.57
	c-2.72-2.95-5.75-5.62-8.1-7.85c-5.69,3.01-10.99,5.75-16.19,8.65c-0.91,0.51-1.91,1.68-2.01,2.65
	C408.37,591.29,410.64,601.09,414.48,611.03z M227.11,381.59c0.33-0.11,0.67-0.21,1-0.32c-0.44-6.88,2.56-12.05,8.41-14.46
	c6.59-2.72,14.65-0.98,19.44,4.26c2.55,2.79,4.36,6.13,3.63,9.89c-0.67,3.42-2.33,6.64-3.39,9.52c8.47-3.18,12.74-10.21,11.93-20.51
	c-0.65-8.23-5.48-13.61-13.56-14.47c-3.57-0.38-7.35-0.45-10.83,0.29c-7.77,1.67-15.41,3.94-23.17,5.98
	C222.74,368.37,224.93,374.98,227.11,381.59z M278.04,82.47c-1.25,2.52-2.65,5.33-4.08,8.2c-1.59-0.63-2.8-1.11-4.23-1.67
	c0.96,7.8,0.52,15.06-4.45,21.36c-2.13-0.94-3.97-1.76-5.6-2.49c-2.25,3.97-0.63,6.69,2.14,9.17c1.54,1.38,2.86,3,4.36,4.44
	c4.65,4.45,9.46,5.12,14.99,1.81c3.17-1.9,6.1-4.19,8.77-6.06c-1.14-5.77-2.2-11.14-3.28-16.61c-1.02,0.26-2.28,0.59-4.26,1.1
	C280.91,95.11,279.45,88.7,278.04,82.47z M299.52,164.32c1.71,5.93,3.35,11.64,5.02,17.47c17.21,1.64,32.83,7.1,44.88,20.6
	c-0.26-1.24-0.67-3.18-1.25-3.23c-2.57-0.25-3.11-2.29-3.81-3.93c-2.24-5.28-4.21-10.68-6.29-16.06c-0.79,0.27-2.03,0.7-3.2,1.1
	c-0.37-0.42-0.6-0.63-0.76-0.89c-0.37-0.62-0.88-1.24-1.01-1.92c-1.36-7.1-7.03-9.12-12.84-10.97c-1.38-0.44-2.78-0.87-4.2-1.14
	C310.48,164.24,304.88,163.42,299.52,164.32z M277.03,260.18c-2.03,0.42-3.83,0.54-5.44,1.16c-3.52,1.37-4,3.28-2.11,6.53
	c0.98,1.69,2.02,3.45,2.5,5.32c0.78,3.02,2.61,3.41,5.16,2.7c1.2-0.33,2.39-0.68,3.58-1.05c9.82-3.08,19.73-3.61,29.75-1.07
	c2.61,0.66,5.17,1.54,7.77,2.2c2.26,0.58,3.95,0.23,4.75-2.5c0.63-2.15,1.77-4.2,2.96-6.12c1.5-2.41,0.94-4.2-1.37-5.41
	c-1.34-0.7-2.95-1.39-4.38-1.3c-3.27,0.21-6.61,0.58-9.75,1.46c-7.47,2.09-14.86,2.46-22.39,0.44
	C284.36,261.56,280.58,260.93,277.03,260.18z M469.04,494.51c4.36-6.73,7.08-13.89,7.78-21.77c0.06-0.66-0.12-1.49-0.5-2.02
	c-3.16-4.35-6.39-8.65-9.96-13.44c-2.59,5.37-6.31,5.05-10.42,2.06c-1.37,5.1-2.66,9.68-3.79,14.3c-0.22,0.91-0.11,2.08,0.29,2.93
	C456.03,484.21,461.66,489.99,469.04,494.51z M442.16,407.27c-1.6-8.29-4.26-16.28-4.36-24.3c-0.09-7.39-2.51-12-8.58-15.5
	c-3.3-1.9-6.31-4.32-9.62-6.62c2.08,9.18,4.36,17.81,5.93,26.56c1.59,8.84,2.49,17.8,3.68,26.61
	C433.67,411.7,438.22,409.33,442.16,407.27z M433.46,490.13c8.57-9.81,13.48-20.12,14.52-32.11c0.09-1.02-0.5-2.45-1.28-3.12
	c-2.66-2.29-5.54-4.32-7.85-6.08c-4.43,3.65-8.7,7.06-12.82,10.64c-0.69,0.6-1.14,2.02-0.98,2.94c0.63,3.67,1.3,7.36,2.42,10.9
	C429.19,478.77,431.3,484.11,433.46,490.13z M197.98,661.34c1.62-8.7,3.53-16.24,9.76-21.67c6.47-5.64,14.12-5.7,22.27-4.19
	c-16.05-15.97-34.39-11.89-42.97,3.53c0.79-0.17,1.51-0.51,2.18-0.44c1.95,0.21,3.89,0.58,5.83,0.88c-0.56,1.8-0.77,3.84-1.77,5.35
	c-1.99,3-4.41,5.71-7.22,9.27C189.93,656.43,193.63,658.69,197.98,661.34z M333.05,729.02c1.59-0.15,3.03-0.41,4.47-0.39
	c2.18,0.04,2.9-1.26,3.09-3.08c0.55-5.06,0.28-10.09-2.64-14.42c-6.42-9.51-15.82-14.39-26.86-16.37c-1.25-0.22-2.67,0.5-4.84,0.96
	c12.96,8.71,18.54,19.33,13.37,34.12c2.32-0.13,4.16-0.24,5.8-0.33c0.85-2.29,1.52-4.37,2.41-6.35c0.29-0.64,1.2-1.44,1.79-1.4
	c0.59,0.03,1.38,0.9,1.65,1.58C331.97,725.06,332.4,726.88,333.05,729.02z M498.54,478.29c0.47-5.97,2.17-11.56,0.33-17.16
	c-1.42-4.32-3.21-8.52-4.96-12.72c-0.35-0.85-1.12-1.77-1.94-2.14c-3.82-1.72-7.73-3.25-11.81-4.94c-1.82,2.83-3.85,5.83-5.67,8.95
	c-0.42,0.73-0.46,2.04-0.09,2.82C479.51,464.08,487.59,472.24,498.54,478.29z M127.92,255.66c4.91-5.65,8.09-12.05,9.65-19.26
	c0.14-0.64,0.04-1.5-0.29-2.05c-2.61-4.33-5.3-8.61-8.29-13.42c-2.92,4.86-6.33,4.36-10.06,1.02c-1.72,4.34-3.4,8.22-4.76,12.21
	c-0.45,1.32-0.47,3.08,0.02,4.36C116.92,245.59,121.73,251.05,127.92,255.66z M143.79,207.77c-0.21,0.23-0.73,0.73-1.19,1.28
	c-6.88,8.22-6.94,8.46-1.15,17.74c4.16,6.66,9.51,12.15,16.4,16.44c2.25-8.72,3.6-17.17,2-25.81c-0.22-1.17-1.17-2.63-2.2-3.16
	C153.27,212,148.73,210.05,143.79,207.77z M383.15,692.31c5.58-4.26,9.92-9.27,12.8-15.48c0.32-0.69,0.49-1.69,0.23-2.35
	c-1.71-4.4-3.56-8.74-5.55-13.55c-3.91,3.54-7.23,2.43-10.18-1.02c-2.56,3.74-4.92,7.01-7.08,10.41c-0.55,0.86-0.87,2.18-0.68,3.16
	C374.11,680.79,377.79,686.88,383.15,692.31z M166.68,131.58c-1.98,4.37-3.74,8.11-5.35,11.92c-0.33,0.77-0.39,1.88-0.1,2.64
	c2.73,7.1,7.57,12.45,13.88,16.79c4.93-5.19,8.23-10.97,9.97-17.62c0.16-0.62,0.11-1.5-0.22-2.03c-2.53-4.01-5.14-7.96-7.96-12.28
	C173.72,134.76,170.39,135.08,166.68,131.58z M241.36,95.07c4.76-5.29,7.75-11.13,9.39-17.67c0.16-0.64,0.13-1.55-0.21-2.06
	c-2.7-4.01-5.5-7.95-8.68-12.5c-2.82,5.38-6.37,3.68-10,1.46c-1.75,4.25-3.46,8.13-4.92,12.11c-0.33,0.91-0.03,2.26,0.4,3.21
	C230.3,86.16,235.11,91.05,241.36,95.07z M317.11,106.3c5.78-4.11,10.03-9.11,13.06-15.14c0.3-0.6,0.55-1.46,0.35-2.03
	c-1.6-4.54-3.31-9.05-5.15-14c-3.96,3.58-7.13,2.37-9.87-1.34c-2.72,3.83-5.22,7.27-7.61,10.78c-0.42,0.62-0.7,1.57-0.58,2.29
	C308.49,94.24,311.78,100.58,317.11,106.3z M191.93,118.73c-8.21,7.18-8.49,9.37-2.08,18.57c0.18,0.26,0.38,0.5,0.56,0.75
	c3.97,5.51,8.86,9.97,14.98,13.54c2.41-8.19,3.95-16.09,2.38-24.26c-0.2-1.03-1.38-2.2-2.41-2.68
	C201.09,122.62,196.7,120.81,191.93,118.73z M319.46,357.93c-0.26-0.33-0.53-0.65-0.79-0.98c-2.27,1.05-4.68,1.87-6.78,3.2
	c-3.15,1.99-5.98,4.49-9.14,6.48c-5.83,3.67-10.45,3.34-15.71-1.05c-2.54-2.13-4.83-4.56-7.24-6.85c-2.16-2.04-4.59-2.81-7.49-1.82
	c1.45,2.67,2.63,5.22,4.15,7.54c2.42,3.7,4.63,7.69,7.73,10.76c7.64,7.58,17.59,7.48,24.62-0.68
	C313.07,369.61,315.96,363.51,319.46,357.93z M352.09,678.99c9.57-5.33,16.76-12.26,21.15-21.85c0.41-0.88,0.57-2.39,0.09-3.08
	c-1.93-2.77-4.17-5.34-5.83-7.42c-4.98,1.83-9.46,3.37-13.83,5.17c-1.04,0.42-2.24,1.56-2.5,2.58
	C349.12,662.53,350.05,670.6,352.09,678.99z M407.55,651.55c-9.48,5.97-9.96,7.5-5.34,18.1c0.12,0.29,0.23,0.58,0.36,0.86
	c2.99,6.06,6.79,11.48,12.18,15.96c3.7-7.31,6.42-14.56,6.69-22.5c0.04-1.31-0.55-3.16-1.51-3.88
	C416,657.09,411.81,654.44,407.55,651.55z M270.95,82.76c2.59-7.03,3.42-17.88,1.81-24.2c-0.24-0.94-1.02-2.11-1.85-2.46
	c-4.63-1.96-9.36-3.69-14.37-5.63c-1.61,1.86-3.72,4.01-5.46,6.44c-0.67,0.94-1.05,2.73-0.62,3.73
	C254.6,70.35,261.69,77.37,270.95,82.76z M208.09,88.85c8.14-7.14,13.77-15.27,16.04-25.48c0.23-1.01,0.03-2.62-0.64-3.23
	c-2.41-2.24-5.1-4.18-7.33-5.96c-3.94,2.62-7.78,4.76-11.07,7.55c-1.62,1.37-3.17,3.97-3.13,5.98
	C202.12,75.04,204.54,81.89,208.09,88.85z M364.56,150.39c-2.34,3.96-4.41,7.3-6.29,10.76c-0.48,0.89-0.7,2.25-0.42,3.2
	c2.11,6.94,6.19,12.54,11.9,17.11c5.16-4.29,8.91-9.43,11.38-15.48c0.32-0.77,0.42-1.92,0.07-2.63c-2.01-4.07-4.18-8.07-6.5-12.46
	C371.21,154.18,367.85,154.13,364.56,150.39z M303.11,60.28c-4.78,1.71-8.99,3.43-13.35,4.67c-1.92,0.55-2.85,1.43-3.1,3.22
	c-0.46,3.28-1.24,6.58-1.18,9.86c0.08,4.66,0.8,9.31,1.29,14.44c9.93-5.41,17.28-12.18,21.77-21.75c0.4-0.84,0.43-2.3-0.04-3.03
	C306.77,65,304.75,62.5,303.11,60.28z M390.64,140.44c-2.07,1.78-4.53,3.83-6.88,6.01c-0.49,0.45-0.9,1.47-0.75,2.07
	c2.61,10.49,8.87,18.42,17.62,25.1c3.28-7.69,5.5-15.17,4.83-23.22c-0.09-1.01-1.22-2.23-2.19-2.82
	C399.31,145.19,395.21,143,390.64,140.44z M350.09,138.67c-3.03,1.59-5.8,3.26-8.72,4.55c-7.02,3.1-7.05,3.03-6.92,10.75
	c0.02,1.04,0,2.09,0.15,3.11c0.68,4.64,1.18,9.34,3.53,13.81c8.78-5.76,15.41-12.85,18.96-22.47c0.34-0.92,0.14-2.53-0.47-3.24
	C354.57,142.84,352.23,140.77,350.09,138.67z M347.83,101c0.43,0.03,0.87,0.05,1.3,0.08c1.98-5.95,3.99-11.89,5.91-17.86
	c0.2-0.63,0.18-1.6-0.18-2.09c-3.83-5.22-7.74-10.38-11.74-15.7c-2.92,2.13-5.2,3.92-7.61,5.52c-1.52,1.01-1.92,2.21-1.63,3.93
	C335.64,85.18,340.48,93.76,347.83,101z M448.87,628.01c-2.49,2.29-4.75,4.26-6.85,6.38c-0.45,0.45-0.65,1.53-0.46,2.17
	c2.09,6.93,5.79,12.85,11.45,17.42c0.54,0.43,2.07,0.42,2.59-0.03c5.48-4.69,9.56-10.36,11.32-17.47c0.17-0.68,0.09-1.77-0.34-2.18
	c-2.32-2.17-4.79-4.19-7.27-6.32c-1.84,1.95-3.45,3.66-5.54,5.9C452.05,631.84,450.54,630.02,448.87,628.01z M174.91,535.7
	c-1.91,0-3.25-0.11-4.57,0.02c-11.23,1.07-18.69,7.8-19.42,17.46c-0.75,10.01,7.59,18.03,16.92,16.27
	C160.43,551.68,161.51,546.18,174.91,535.7z M116.91,172.08c11.91-1.59,22.3,0.19,32.3,5.49c-2.03-4.85-3.91-9.33-5.8-13.86
	c-1.26,0.6-2.35,1.13-3.59,1.73c-4.37-5.7-5.39-12.46-6.72-19.1c-0.32-0.09-0.65-0.18-0.97-0.27
	C127.15,154.58,122.17,163.08,116.91,172.08z M327.8,159.78c-0.3-1.33-0.13-3.72-1.23-5.01c-6.44-7.53-13.63-14.25-23.21-17.67
	c-3.24-1.15-6.95-2.2-9.68,0.61c-2.95,3.03-1.07,6.65,0.25,9.88c0.36,0.89,1.59,1.77,2.57,2c3.72,0.87,7.66,1.02,11.24,2.26
	C314.53,154.19,321.12,157.1,327.8,159.78z M141.57,155.92c9-7.38,14.97-15.61,17.56-26.09c0.18-0.74-0.09-1.94-0.62-2.46
	c-1.74-1.71-3.7-3.21-5.8-4.99c-5,5.74-9.8,11.18-14.5,16.71c-0.58,0.68-0.99,1.96-0.78,2.78
	C138.62,146.35,140.02,150.77,141.57,155.92z M418.6,247.66c4.76-3.81,8.14-8.41,10.38-13.85c0.24-0.58,0.18-1.45-0.07-2.04
	c-1.55-3.59-3.19-7.13-4.99-11.11c-3.15,2.91-6.01,2.48-8.61-0.69c-2.09,3.4-4.03,6.45-5.84,9.57c-0.37,0.63-0.48,1.59-0.32,2.31
	C410.52,238.09,413.84,243.19,418.6,247.66z M466.02,501.04c-6.24,7.16-6.31,8.42-0.93,15.68c0.92,1.25,1.87,2.53,3.01,3.56
	c2.09,1.87,4.34,3.55,6.59,5.37c4.84-5.98,7.41-12.2,8.02-19.2c0.07-0.77-0.33-1.92-0.91-2.36c-2.19-1.67-4.55-3.11-6.95-4.7
	c-1.26,2.07-2.36,3.87-3.52,5.78C469.45,503.7,467.83,502.44,466.02,501.04z M403.79,209.14c-4.08,1.76-7.79,3.29-11.44,4.98
	c-0.81,0.38-1.83,1.19-1.99,1.96c-1.53,7.16-0.48,14.14,1.57,21.33c6.48-3.91,11.4-8.82,15-15.05c3.29-5.71,3.28-5.72-0.89-10.63
	C405.23,210.79,404.41,209.86,403.79,209.14z M133.12,260.74c-1.43,1.79-2.69,3.36-3.97,4.96c-1.74-1.55-3.26-2.9-4.88-4.34
	c-1.74,1.95-3.34,3.59-4.73,5.37c-0.49,0.63-0.92,1.78-0.68,2.46c2.22,6.38,5.94,11.68,12.25,16.05c2.5-4.1,5.19-7.77,7.1-11.82
	c2.95-6.27,2.69-6.51-2.58-10.74C134.9,262.1,134.15,261.54,133.12,260.74z M400.4,579.15c-1.78,0-3.41-0.02-5.04,0
	c-3.04,0.04-6.23,4.75-4.93,7.5c3.89,8.28,6.03,16.98,6.62,26.09c0.05,0.84,0.43,2.19,0.99,2.39c3.42,1.25,6.94,2.24,10.77,3.43
	C402.38,605.99,399.9,592.99,400.4,579.15z M312.27,395.79c1.8-5.33,2.21-10.3,0.27-15.72c-4.76,5.1-10.44,7.11-16.97,7.23
	c-6.59,0.12-12.41-1.85-17.57-6.28c-1.44,5.65-1.1,10.79,1.2,15.96C289.93,390.08,300.86,389.9,312.27,395.79z M416.75,179.29
	c0.12-2.35,0.17-5.05,0.43-7.73c0.27-2.79,0.17-5.81,1.26-8.28c2.83-6.43,0.56-11.32-3.71-15.92c-0.21-0.23-0.32-0.61-0.57-0.73
	c-0.81-0.39-1.65-0.69-2.8-1.15c1.08,13.47-0.27,25.73-9.18,36.02c-1.45-0.8-2.49-1.38-3.78-2.09c0,1.91,0,3.46,0,4.54
	C404.47,182.41,410.44,180.89,416.75,179.29z M378.45,696.77c-2.13,1.5-4.06,2.73-5.81,4.17c-0.56,0.46-1,1.57-0.89,2.28
	c0.88,5.57,3.29,10.43,6.94,14.73c1.18,1.39,2.27,1.34,3.38,0.23c2.92-2.92,6.11-5.65,8.54-8.94c3.14-4.26,2.86-4.46-0.61-8.33
	c-0.9-1-1.79-2-2.77-3.1c-1.61,1.3-3.13,2.53-4.79,3.87C381.11,700.05,379.89,698.54,378.45,696.77z M177.76,190.36
	c2.62-3.84,5.47-7.27,7.49-11.14c2.88-5.52,2.59-5.8-2.27-9.52c-0.89-0.68-1.82-1.33-2.8-2.04c-1.35,1.56-2.62,3.02-3.99,4.58
	c-1.72-1.42-3.28-2.69-5.14-4.23c-1.45,1.6-2.68,3.14-4.11,4.48c-1.43,1.34-1.58,2.62-0.75,4.38
	C168.67,182.13,171.99,186.63,177.76,190.36z M244.96,122.29c2.48-3.93,5.14-7.4,7.01-11.26c2.7-5.56,2.38-5.98-2.6-9.5
	c-0.91-0.64-1.86-1.23-2.86-1.89c-1.34,1.68-2.55,3.19-3.8,4.75c-1.74-1.4-3.25-2.61-4.91-3.95c-1.75,1.84-3.39,3.42-4.81,5.17
	c-0.47,0.58-0.76,1.79-0.48,2.44C234.95,113.84,238.64,118.59,244.96,122.29z M313.4,133.37c5.4-3.12,9.45-7.17,12.12-12.49
	c0.43-0.86,0.67-2.35,0.21-3.03c-1.41-2.09-3.19-3.92-4.84-5.87c-1.77,1.42-3.22,2.58-4.73,3.8c-1.28-1.72-2.5-3.35-3.79-5.07
	c-2.08,1.41-4.01,2.61-5.78,4.01c-0.58,0.46-1.08,1.52-0.99,2.23C306.43,123.16,308.88,128.62,313.4,133.37z M369.58,190.82
	c-1.45-1.7-2.71-3.18-4.02-4.71c-1.96,1.56-3.72,2.84-5.32,4.31c-0.56,0.52-1.16,1.6-0.99,2.23c1.59,6.05,4.69,11.17,9.76,15.12
	c5.02-3.51,8.83-7.77,10.91-13.39c0.3-0.8,0.29-2.18-0.2-2.72c-1.65-1.81-3.59-3.36-5.53-5.12
	C372.67,187.95,371.31,189.2,369.58,190.82z M431.06,606.63c-2.25,2.45-4.45,4.78-6.57,7.18c-0.44,0.5-0.84,1.26-0.83,1.89
	c0.09,6.87,2.65,12.98,5.88,19.88c4.13-5.21,7.77-9.8,11.15-14.07C437.36,616.36,434.39,611.77,431.06,606.63z M475.66,635.05
	c3-6.48,5.11-12.18,5.48-18.38c0.07-1.12-0.26-2.5-0.92-3.39c-1.9-2.58-4.06-4.96-6.31-7.65c-3.57,5.77-6.45,10.41-9.69,15.64
	C467.72,625.48,471.45,629.98,475.66,635.05z M362.12,211.14c6,10.28,14.18,18.61,22.69,26.05c-0.52-7.58-1.04-15.27-1.58-23.18
	c-1.17-0.13-2.64-0.29-4.29-0.47c0.43-1.96,0.78-3.55,1.13-5.13c-0.4-0.35-0.79-0.71-1.19-1.06c-0.52,1.02-0.8,2.34-1.61,3.01
	C368,218,370.85,217.64,362.12,211.14z M447.61,483.57c-1.53,2.38-3.16,4.75-4.57,7.24c-0.45,0.8-0.69,2.08-0.37,2.89
	c2.19,5.49,4.54,10.91,6.85,16.35c0.49-0.01,0.99-0.02,1.48-0.04c2.14-4.54,4.31-9.06,6.37-13.63c0.22-0.49,0.02-1.46-0.35-1.89
	C453.99,490.86,450.85,487.3,447.61,483.57z M489.25,503.14c0.45-0.21,0.89-0.42,1.34-0.63c0.47-4.71,1.1-9.4,1.33-14.12
	c0.09-1.85-0.12-4.27-1.23-5.51c-2-2.25-4.77-3.82-7.11-5.6c-1.79,4.65-3.48,8.98-5.09,13.33c-0.2,0.55-0.19,1.53,0.16,1.89
	C482.12,496.1,485.7,499.61,489.25,503.14z M376.34,105.25c-5.18-5.56-10.5-11.27-15.34-16.46c-3.14,6.46-6.29,12.93-8.91,18.32
	C359.49,106.54,367.88,105.9,376.34,105.25z M414.82,251.77c-1.57,1.25-3.08,2.22-4.28,3.49c-0.65,0.69-1.22,2-1.02,2.84
	c1.19,5.04,3.54,9.48,7.58,12.94c4.4-2.85,7.65-6.56,9.54-11.3c0.37-0.93-0.06-2.49-0.66-3.4c-0.95-1.44-2.37-2.57-3.67-3.93
	c-1.36,1.17-2.59,2.23-3.97,3.42C417.2,254.51,416.12,253.27,414.82,251.77z M143.63,241.08c-2.14,4.08-4.18,7.9-6.14,11.76
	c-0.28,0.55-0.45,1.45-0.19,1.93c2.36,4.28,5.86,7.25,11.21,9.43c0.77-5.32,1.54-10.07,2.08-14.85c0.11-0.95-0.44-2.25-1.13-2.97
	C147.69,244.52,145.67,242.9,143.63,241.08z M361.18,699.78c0.38,0.15,0.76,0.31,1.13,0.46c3.49-3.31,6.98-6.62,10.27-9.75
	c-2.2-4.55-4.15-8.6-6.22-12.89c-1.5,1.15-2.79,2.37-4.29,3.23c-2.72,1.56-3.66,3.78-3.11,6.76
	C359.7,691.66,360.44,695.72,361.18,699.78z M392.01,692.89c2.5,3.87,5.12,7.92,7.74,11.97c0.44-0.06,0.88-0.11,1.31-0.17
	c1.8-4.58,3.68-9.12,5.33-13.75c0.31-0.88,0.05-2.29-0.5-3.09c-1.44-2.12-3.18-4.04-4.79-6.03
	C398.12,685.46,395.24,688.96,392.01,692.89z M193.71,172.2c0.48-0.12,0.96-0.23,1.44-0.35c0.96-4.73,1.99-9.44,2.83-14.19
	c0.16-0.89-0.13-2.22-0.73-2.82c-1.95-1.94-4.15-3.63-6.15-5.33c-2.2,3.77-4.28,7.22-6.21,10.76c-0.33,0.61-0.29,1.88,0.14,2.37
	C187.84,165.9,190.8,169.03,193.71,172.2z M154.73,174.31c0.4,0.08,0.8,0.16,1.19,0.25c2.89-3.93,5.77-7.86,8.41-11.44
	c-3.1-4.19-5.74-7.75-8.47-11.44c-1.23,1.34-2.29,2.78-3.63,3.87c-2.44,2-2.9,4.36-1.85,7.18
	C151.82,166.59,153.28,170.44,154.73,174.31z M250.1,93.67c3.44,3.37,6.84,6.71,10.24,10.04c0.42-0.11,0.83-0.23,1.25-0.34
	c0.82-4.83,1.71-9.65,2.4-14.5c0.12-0.86-0.33-2.11-0.96-2.7c-1.94-1.78-4.1-3.33-6.35-5.1c-1.06,2.24-1.92,4.21-2.91,6.11
	C252.73,89.19,251.55,91.13,250.1,93.67z M221.87,84.69c-7.06,7.69-7.27,5.75-3.29,16.05c0.85,2.2,2.11,4.25,3.64,7.26
	c2.86-4.34,5.38-8.08,7.78-11.89c0.25-0.4,0.02-1.4-0.33-1.85C227.16,91.08,224.57,87.98,221.87,84.69z M332.75,119.18
	c0.49,0.01,0.98,0.02,1.47,0.03c1.92-4.43,3.9-8.83,5.7-13.3c0.35-0.86,0.39-2.23-0.07-2.96c-1.45-2.3-3.2-4.4-4.8-6.52
	c-2.91,3.29-5.61,6.28-8.21,9.36c-0.41,0.48-0.63,1.58-0.36,2.1C328.5,111.69,330.65,115.42,332.75,119.18z M296.04,114.3
	c3.68-3.53,6.88-6.54,9.99-9.66c0.37-0.37,0.45-1.39,0.22-1.92c-1.64-3.76-3.4-7.47-5.23-11.42c-1.74,1.28-3.57,2.45-5.18,3.87
	c-0.93,0.82-2.01,2-2.14,3.12C293.13,103.49,294.31,108.47,296.04,114.3z M351.85,168.74c-1.77,1.52-3.5,2.84-5.01,4.38
	c-0.78,0.8-1.64,2.01-1.62,3.03c0.06,5.09,1.69,9.81,4.13,15.06c3.17-3.54,6.03-6.63,8.74-9.85c0.42-0.49,0.46-1.77,0.12-2.36
	C356.25,175.63,354.12,172.35,351.85,168.74z M386.69,170.32c-2.39,3.2-4.77,6.32-7.06,9.5c-0.35,0.48-0.67,1.47-0.43,1.82
	c2.6,3.64,5.32,7.2,8.01,10.79c0.44-0.11,0.88-0.21,1.31-0.32c1.44-4.5,2.96-8.97,4.24-13.51c0.25-0.89-0.13-2.3-0.75-3.02
	C390.41,173.71,388.51,172.09,386.69,170.32z M214.92,134.25c5.63-5.35,10.74-10.19,15.8-14.99c-1.56-2.59-2.88-4.79-4.26-7.07
	c-1.94,1.37-3.76,2.65-5.94,4.2c-0.89-1.05-1.61-1.92-2.52-3c0.82,2.71,1.55,5.1,2.34,7.71c-2.55,0.3-4.66,0.55-6.94,0.82
	C213.88,125.94,214.35,129.66,214.92,134.25z M466.97,404.63c0.13-0.26,0.26-0.52,0.39-0.79c-5.73-6.28-11.46-12.57-17.19-18.85
	c-0.42,0.22-0.84,0.44-1.25,0.66c1.64,5.84,3.22,11.69,4.99,17.48c0.2,0.66,1.44,1.39,2.23,1.42
	C459.75,404.71,463.36,404.63,466.97,404.63z M387.5,613.28c-0.98-5.86-1.92-11.46-2.85-17.07c-0.36,0-0.71-0.01-1.07-0.01
	c-3.65,5.92-7.3,11.84-11.06,17.94C377.43,613.86,381.97,613.6,387.5,613.28z M438.53,211.16c-2.62,2.2-4.71,3.89-6.7,5.7
	c-0.46,0.41-0.88,1.27-0.78,1.83c1.1,6.21,3.8,11.64,8.39,16.34c0.5-6.98,0.54-13.9,0.45-20.82
	C439.87,213.34,439.13,212.47,438.53,211.16z M91.81,533.07c0.02,0.1,0.04,0.2,0.06,0.3c2.1-0.47,4.19-1.01,6.31-1.39
	c2.3-0.41,2.77-1.94,1.89-3.64c-1.37-2.65-2.97-5.22-4.76-7.6c-1.55-2.06-3.53-1.8-4.81,0.34c-1.27,2.11-1.99,4.55-3.23,6.68
	c-2.08,3.59-1.63,4.87,3.3,5.31C90.98,533.1,91.4,533.07,91.81,533.07z M433.43,238.24c-2.17,2.83-4.29,5.49-6.28,8.25
	c-0.37,0.52-0.57,1.62-0.27,2.09c1.94,3.13,4.04,6.15,6.2,9.37C439.46,249.56,439.48,244.51,433.43,238.24z M400.11,255.07
	c0.41,0.08,0.83,0.16,1.24,0.25c2.5-2.71,5.04-5.38,7.44-8.17c0.37-0.42,0.33-1.55,0.03-2.13c-1.52-3.04-3.19-6.01-4.9-9.18
	c-0.99,0.82-2.11,1.58-3.01,2.55c-1.06,1.15-2.79,2.54-2.71,3.72C398.5,246.46,399.42,250.76,400.11,255.07z M432.48,261.73
	c-2.79,3.97-5.43,7.72-8.04,11.5c-0.32,0.47-0.72,1.15-0.6,1.61c0.91,3.44,1.94,6.85,2.93,10.27c0.26,0.05,0.51,0.1,0.77,0.15
	c2.16-6.43,4.26-12.88,6.53-19.28C434.93,263.54,434.01,262.32,432.48,261.73z M201.66,92.7c-2.05-5.31-4.12-10.65-6.29-16.28
	c-2.66,3.39-5.22,6.66-7.77,9.91C192.38,88.49,196.95,90.57,201.66,92.7z M283.09,45.61c3.55-3.26,7.1-6.52,10.68-9.81
	c-5.41,0-10.77,0-16.27,0C279.44,39.21,281.23,42.36,283.09,45.61z M83.68,499.11c1.95,4.27,4.93,5.93,7.98,7.46
	c0.48,0.24,1.51,0.01,1.92-0.38c2.28-2.15,4.45-4.43,7.07-7.08C94.62,499.11,89.46,499.11,83.68,499.11z M434.1,182.33
	c-2.56-5.76-4.87-10.96-7.18-16.15c-0.42,0.06-0.83,0.11-1.25,0.17c-0.12,4.15-0.31,8.3-0.29,12.45c0,0.65,0.82,1.69,1.47,1.89
	C428.97,181.34,431.19,181.7,434.1,182.33z M109.63,245.46c-0.21,0.05-0.43,0.11-0.64,0.16c1.09,5.69,2.19,11.38,3.28,17.07
	c1.97-1.99,3.24-4.07,4.35-6.24c0.26-0.51,0.17-1.49-0.16-1.95C114.24,251.44,111.91,248.46,109.63,245.46z M121.5,286.97
	c-0.22,0.09-0.43,0.18-0.65,0.27c2.63,4.9,5.25,9.79,8.2,15.28c1.06-3.3,1.87-5.81,2.61-8.09
	C128.12,291.83,124.81,289.4,121.5,286.97z M107.82,215.15c0,5.06,0,9.8,0,14.55c1.47-2.42,2.22-4.99,3.18-7.48
	C112.28,218.9,111.25,216.68,107.82,215.15z M164.68,188.23c-1.77-2.96-3.44-5.74-5.17-8.62c-1.28,0.91-2.45,1.73-3.68,2.6
	c2.48,2.67,4.83,5.21,7.3,7.87C163.78,189.31,164.29,188.7,164.68,188.23z M456.78,518.18c0,3.14,0,5.87,0,8.73
	c2.6,0.27,4.95,0.52,7.8,0.82C461.77,524.28,459.4,521.39,456.78,518.18z M502.57,586.97c0.19,0.03,0.38,0.07,0.57,0.1
	c0.91-4.21,1.83-8.42,2.74-12.62c-1.81,0-3.11,0-4.38,0C501.86,578.76,502.22,582.86,502.57,586.97z M491.95,619.7
	c-1.38-0.85-2.48-1.53-3.92-2.41c0,3.47,0,6.52,0,9.57c0.17,0.04,0.33,0.08,0.5,0.12C489.61,624.67,490.69,622.37,491.95,619.7z
	 M402.2,711.87c-1.65-1.27-2.84-2.2-4.26-3.29c-0.87,2.11-1.6,3.89-2.53,6.17C397.92,713.68,399.81,712.88,402.2,711.87z
	 M322.37,139.84c0.83-2.42,1.57-4.57,2.59-7.52c-2.42,2.01-4.16,3.46-6.02,5C320.22,138.26,321.18,138.97,322.37,139.84z
	 M210.03,96.66c-0.86,0.59-1.55,1.06-2.33,1.6c1.55,1.75,2.88,3.26,4.78,5.41C211.51,100.91,210.82,98.93,210.03,96.66z"/>
</svg>
